<?xml version="1.0" encoding="UTF-8"?>
<svg version="1.1" viewBox="0 0 1280 1280" width="1280" height="1280" xmlns="http://www.w3.org/2000/svg">
<path transform="translate(354,176)" d="m0 0h19l5 1h11l21 3 16 4 16 5 19 10 16 8 15 10 11 8 13 11 1 3 5 2 14 14 9 12 10 14 9 15 8 17 5 14 5 16 4 16 2 10 2 22 1 46-1 4-2 23-4 11-3 4-5 9-3 1-2 4h-2l-2 4-11 7-8 3-11 4h-18l-3-1h-12l-7 6-6 9h-2l-2 4-13 10-11 8-10 7-2 3v5l6 5 6 3 5 6v15l-6 8-10 2h-15l-2 5-4 13-7 11-5 7h-2l-2 5-8 7h-2v2l-14 9-15 4h-24l-15-5-11-6-3-2v-2l-5-2-10-9-7-10-5-8-5-10-4-1-8 6-10 11-6 9-6 8-6 11-6 12-4 11-2 9-2 8-2 28-1 59v67l2 5 1 7 10 7 9 5 3 3 5 3 7 5 5 3 7 5 11 6 9 6 5 3 7 5 11 6 10 7 9 6 11 7 9 6 14 10 8 6 10 8 3 3 1 4v8l-2 6-6 5-6 1-10-3-9-5-12-7-8-6-11-6-6-4v-2l-6-2-9-6-11-6-8-6-10-6v-2l-6-2-6-4v-2l-6-2-11-7-7-5v-2l-6-2-9-6-5-3-7-5-9-5-3-3-7-4-3-4-2-9v-168l4-25 6-18 3-10 7-14 3-4 9-15 8-10 6-5 4-6 12-12 12-8 8-6 3-3-1-4-4-6-7-3-6-4v-2l-6-2-5-4v-2l-5-2v-2l-4-2v-2l-5-2-14-14-4-1-29-1-14-4-14-8v-2l-5-2-10-9-4-6-4-8-4-13-1-17v-32l1-34 3-14 2-12 4-16 3-9 7-16 8-16 4-6 4-8 10-14 10-13 20-20 4-2 5-5 8-6 11-8 9-5 9-6 7-3 12-5 8-3 10-4 6-2 10-2 14-2 11-1 9-1zm7 37-3 1-20 2-8 2h-7l-9 4-12 2-5 3-5 2-1 1-9 2-12 6-10 7-12 7-5 4-11 9-12 12-7 8-3 6-6 8-6 11-6 12-5 12-3 7-6 25-1 3-2 22-1 3v52l3 15 6 9 5 3 6 3 14 1 9-2 10-10 4-6 1-4 1-55 1-13 4-19 2-6 2-10 4-10 6-8v-2l4-2 8-3 9-2h58l9 1h14l5-3 3-9 3-16 1-12 4-10 4-4h16l6 3 14 3 16 8 16 11 5 4h2v2l8 6 5 7h2l2 4 9 12 3 5 5 9 2 7 3 7 5 16 3 13v72l6 8 7 6 9 3h13l9-4 8-6 5-6 3-7v-64l-2-13-3-17-2-6-2-10-4-13-5-10-4-10-8-13-7-11-14-18-14-13-11-7-15-10-10-7-18-6-5-3-12-4-10-2-6-2-16-2-9-1zm37 97-5 5-1 3-1 16-3 7-4 8-8 7-4 1h-88l-8 2-4 4-4 14-1 40-3 43-2 8-2 5-2 7-2 3v8l7 8 13 13 10 8 8 4 16 6 3 2 7 2 5 2 7 2 5 2 16 2h22l24-3 24-8 11-6 24-16 14-13 3-5v-7l-3-12-3-6-2-10-1-15v-40l-3-17-4-15-4-9-8-13-5-8-12-12-13-9-6-5zm-77 263-1 1v12l4 10 5 9 5 8 9 10 9 5 9 2 9-1 12-5 10-9 8-11 3-5 3-10 1-2v-8l-4-5h-14l-41 1-12-2z" fill="#020202"/>
<path transform="translate(827,177)" d="m0 0h18l28 3 9 3 11 2 21 8 17 9 6 5 6 3 16 13 8 7 13 13 11 14 6 9 8 14 12 24 4 11 3 11v16l-5 9-4 5h-2l-2 6-2 4-2 12-3 16-3 7-2 9-4 10-6 12-6 11-4 6h-2l-2 5-12 15h-2l-2 5-8 7h-2l-2 4-13 10-12 8-4 4v6l8 6 3 2v2l5 2 6 5v2l4 2v2l4 2v2l4 2v2l4 2 8 8 10 14 6 9 4 5 2 5 3 5 4 10 3 7 4 14 3 15 1 3 1 21v72l-1 139-5 8-16 12-11 6-13 8-7 5-5 3-9 6-10 7-9 6-11 7-15 9-8 6-10 6-11 7-10 7-6 4-5 3-7 5-5 3-11 6-7 3h-8l-6-5-6-10v-7l5-6 14-10 8-6 5-3 14-10 11-6 20-13 12-8 6-3 17-11 11-6 16-11 17-11 11-6 10-7 1-2 1-10v-165l-1-39-4-18-8-19-3-4-6-11-11-16-16-16-8-7-3-1h-7l-4 5-6 11-5 8-3 4h-2l-2 4h-2l-2 4-15 10-13 5-14 3h-10l-18-3-4-3-5-2-13-8v-2l-5-2-6-5-5-7v-2h-2l-2-5h-2l-4-8-4-5-6-1-4 3h-2l-2 4h-2l-2 4h-2l-1 3-5 4-6 2h-8l-6-3-6-8-1-8 6-10 8-8 8-6 12-10 11-7v-9l-2-4-6-2-9-5-4-3v-2l-5-2v-2l-5-2-17-17-2-5h-2l-2-5-3-1-5-8v-2h-2l-5-8-6-12-2-2-3-7-6-9v-2l-4-2v-2l-5-2-6-7-2-7-1-8v-18l4-28 2-4 2-13 3-9 5-13 3-7 10-18 8-11 11-15 8-9 8-7 12-10 9-7 6-3 14-9 11-5 11-4 8-3 12-2 5-2 14-2zm-6 33-20 3-5 2-9 2-5 2-7 2-22 12-14 10-11 11v2l-4 2-7 7-12 18-9 12-7 14-3 13-2 4-2 12-2 7-1 22 2 6 5 3h9l14-9 7-7 4-7 1-6 1-19 4-8 4-3 3-1h12l13 1 4 1h41l5-1 15-1 16-3 11-3 23-7 10-4 16-8 8-3 10-1 6 3 4 5 3 20 3 12 4 8 7 6 5 3 5 1h13l8-2 9-5 3-6v-11l-4-12-2-2-3-7-4-8-15-24-5-5-9-10-13-12-7-5-5-3-11-6-15-7-8-2-4-2-10-2-6-2-27-2zm64 122-5 2-8 3-12 3-10 2-22 5-24 2-43 1-8 3-4 7-3 10-2 3-2 6-7 9-9 7-6 3-11 9-2 3 1 7 6 11 8 12 9 11 12 12 6 4 14 9 8 4 17 6 3 2 9 2 4 2 9 2 30-1 17-2 18-5 10-5 8-3 12-6 12-9 12-11 8-8 10-13 7-10 7-16 4-8 3-8-1-6-4-4-24-5-16-8-13-11-8-11-6-9-4-3zm-95 191-4 3 1 9 3 7 5 10 8 10 6 6 8 4 8 2 13-1 10-5 9-7 11-15 4-7 2-7v-6l-4-3z" fill="#020202"/>
<path transform="translate(599,555)" d="m0 0h14l13 2 16 4 12 4 16 8 9 5 14 11v2l5 2 9 9 8 11 6 8 6 9 3 7 5 11 3 11 2 4 2 17 1 2 1 10v9l-4 30-5 15-4 10-4 8-8 12-9 12-7 8-8 7-8 6h-2l-2 5-2 2v6l4 5 8 6v2l4 2v2l5 2 10 9 9 11v2l3 1 8 10 1 5 3 1 8 15 4 8 3 11 5 20 4 57v35l-4 12-6 6-6 3-14 9-6 3-9 6-10 7-10 6-11 7-13 8-11 7-15 9-10 7-11 7-12 8-3 1h-10l-25-13-8-6-10-6-13-8v-2l-6-2-9-6-11-7-5-3v-2l-6-2-6-4v-2l-6-2-9-6-5-3-7-5-11-6-10-8-4-6-1-4-1-17 2-65 1-12 7-27 13-26 13-19 4-6 5-5 7-8 10-8 15-10 2-3-1-9-9-8-4-3v-2l-5-2-3-4v-2l-4-2v-2h-2l-2-5-3-1-7-11-5-7-10-21-2-3-4-13-3-27 1-17 2-20 3-9 2-8 7-17 9-14 4-5h2l2-5 18-18 4-1 1-3 9-5 11-7 17-8 12-4 22-4zm-2 31-20 3-9 3-20 10-11 9-9 9-4 5-1 5 2 2 11 4 8 2 1 1 20 2 7 2 44 1h16l19-3 12-1 16-8 2-2v-9l-2-4-6-3-5-3-3-3-11-6-9-6-12-5-10-3-12-2zm-94 74-3 3-3 6-1 9-1 21 1 16 5 18 5 11 4 8 8 13 9 10 10 9 12 8 17 6 3 2 9 2 7 2 8 1h15l12-1 6-3 12-3 10-4 10-5 13-9 14-14 8-10 7-11 4-8 4-13 1-11 2-5 1-15-2-8-2-19-5-5-2-1-21 1-5 2-15 2-6 2-26 1h-77l-16-2-22-6zm70 174-5 2-1 6 2 5 11 13 6 5 10 2h8l10-2 8-4 10-10 4-7-1-7-4-2h-27l-13-1zm-41 23-8 7-12 12-8 11-3 6-5 8-7 15-4 9-2 9-2 3-1 47v24l2 10 3 5 6 3 8 6 5 3 12 7 8 5 12 7 8 5 7 5 8 4 11 8h2l1 3 6 3 8 6 8 4 8 1 9-3 11-7 9-6 6-3 8-5 6-3v-2l12-6 11-7 9-5 6-5 6-3v-2l20-10 8-6 3-4 1-4v-27l-4-49-5-16-16-32h-2l-2-5-19-19-5-4-6-1-4 2-9 13-5 6-15 11-11 4-5 1h-28l-12-3-9-4-7-5-7-3-5-6-3-3-6-8-8-7z" fill="#020202"/>
<path transform="translate(354,176)" d="m0 0h19l5 1h11l21 3 16 4 16 5 19 10 16 8 15 10 11 8 13 11 1 3 5 2 14 14 9 12 10 14 9 15 8 17 5 14 5 16 4 16 2 10 2 22 1 46-1 4-2 23-4 11-3 4-5 9-3 1-2 4h-2l-2 4-11 7-8 3-11 4h-18l-3-1h-12l-7 6-6 9h-2l-2 4-13 10-11 8-10 7-2 3v5l6 5 6 3 5 6v15l-6 8-10 2h-15l-2 5-4 13-7 11-5 7h-2l-2 5-8 7h-2v2l-14 9-15 4h-24l-15-5-11-6-3-2v-2l-5-2-10-9-7-10-5-8-5-10-4-1-8 6-10 11-6 9-6 8-6 11-6 12-4 11-2 9-2 8-2 28-1 59v67l2 5 1 7 10 7 9 5 3 3 5 3 7 5 5 3 7 5 11 6 9 6 5 3 7 5 11 6 10 7 9 6 11 7 9 6 14 10 8 6 10 8 3 3 1 4v8l-2 6-6 5-6 1-10-3-9-5-10-6 3-1 11 7 8 4 11 1 5-3 2-2v-14l-4-5-11-8-16-12-10-6-3-3-6-3-6-5-6-3-6-5-6-3-13-8-7-5-5-3-12-7-11-7-10-7-10-6-3-3-10-6-7-4-3-4-1-7v-132l1-15 3-20 2-3 2-11 3-7 4-8 5-9 7-11 8-11 7-8 10-10 6-1 3 3 4 6 2 5 5 8 6 8v2l5 2 7 7 10 7 9 4 10 3 9 1h12l17-4 10-6 10-8 8-9h2l2-5 9-14 2-11 4-5 2-1 19-1 6-4 3-4v-11l-3-5-4-4-7-3-5-5-1-3 7-8 14-10 13-10 5-4h2l2-4h2l2-5 6-8 5-3h10l6 1h16l11-4 10-4 8-5h2l2-4h2l2-4h2l2-5 5-8 2-9 2-3 1-11v-66l-1-14-2-4-2-17-2-3-2-11-3-6-2-8-2-3-2-7-10-19-6-11-10-13-3-5-1-3-4-2-4-6-7-6-5-5-4-3v-2l-3-1-5-5-8-6-9-7-6-3-6-5-21-10-19-10-13-3-16-4-3-1-30-2h-24l-33 3-19 5-13 5-7 2-9 4-14 7-4 3-9 5-11 8-12 9-12 11-15 15-13 18-7 11-3 6-5 8-5 11-4 10-3 6-3 10-2 9-3 9-2 17-2 12v73l3 8 2 7 4 8 9 10 9 7v2l5 2 11 5 11 2 27 1 9 4 13 13 4 3v2l4 2v2h-2v-2l-4-2v-2l-5-2-14-14-4-1-29-1-14-4-14-8v-2l-5-2-10-9-4-6-4-8-4-13-1-17v-32l1-34 3-14 2-12 4-16 3-9 7-16 8-16 4-6 4-8 10-14 10-13 20-20 4-2 5-5 8-6 11-8 9-5 9-6 7-3 12-5 8-3 10-4 6-2 10-2 14-2 11-1 9-1z" fill="#666"/>
<path transform="translate(252,248)" d="m0 0 2 1-11 8-11 9-11 11-7 8-3 6-6 8-6 11-6 12-5 12-3 7-6 25-1 3-2 22-1 3v52l3 15 6 9 10 5 14 1 9-2 9-9 4-6 1-4 1-55 1-13 4-19 2-6 2-10 4-10 7-10 8-5 13-3h58l9 1h14l4-2 3-9 3-16 1-12 4-10 5-5h16l6 3 14 3 16 8 16 11 5 4 2 1v2l5 2 7 8 9 11 6 8 3 5 5 9 2 7 3 7 5 16 3 13v72l6 8 8 6 7 2h13l9-4 8-6 4-5 3-7v-64l-2-13-3-17-2-6-2-10-4-13-5-10-4-10-8-13-4-6 1-2 3 3 12 20 3 7 4 10 3 8 2 7 2 9 2 7 3 15 1 10 1 29v36l-2 9-6 8-7 6-10 5h-18l-10-5-9-9-3-6v-72l-3-17-3-6-2-9-4-9-5-10-8-12-9-10-7-8-12-9-18-12-7-3-10-4-14-3-5-2-6 1-7 2-3 5-2 7-2 13-2 15-4 9-3 2h-85l-12 2-9 7-5 9-4 13-2 10-2 4-3 26-1 49-1 10-4 7-7 8-5 4-5 2h-11l-12-3-8-6-6-9-3-13v-56l2-10 2-18 5-18 3-11 6-12 5-12 8-13 7-10 6-9 4-4 7-8 9-8 5-4h3l2-4z" fill="#606060"/>
<path transform="translate(905,549)" d="m0 0 9 2 7 5 5 5 8 7 4 6 5 5 6 8 7 12 8 14 6 16 3 12 1 11 1 39v157l-2 13-3 4-5 2-8 6-8 4-10 7-6 3-12 9-8 5-8 4-12 8-9 5-11 7-13 9-11 7-9 5-15 10-16 11-9 7h-2l-2 5v6l5 10 4 2h8l10-4 11-7 15-10 7-5 7-4 5-4 11-6 12-8 8-6 11-6 10-7 11-7 5-4 5-3 15-10 4-3 11-6 13-8 14-10 3-5 1-5v-221l-1-8-2-5-2-13-4-14-4-10-4-9-3-5-3-4 1-3 4 5 2 5 3 5 4 10 3 7 4 14 3 15 1 3 1 21v72l-1 139-5 8-16 12-11 6-13 8-7 5-5 3-9 6-10 7-9 6-11 7-15 9-8 6-10 6-11 7-10 7-6 4-5 3-7 5-5 3-11 6-7 3h-8l-6-5-6-10v-7l5-6 14-10 8-6 5-3 14-10 11-6 20-13 12-8 6-3 17-11 11-6 16-11 17-11 11-6 10-7 1-2 1-10v-165l-1-39-4-18-8-19-3-4-6-11-11-16-16-16-8-7-3-1h-7l-4 5-6 11-5 8-3 4h-2l-2 4h-2l-2 4-15 10-13 5-14 3h-10l-18-3-4-3-5-2-13-8v-2l-5-2-6-5-5-7v-2h-2v-2l3 1 8 10 16 12 15 8 17 2h8l13-2 18-8 4-3 5-3 3-1 1-3 5-5h2l6-12h2l1-6 8-11z" fill="#565656"/>
<path transform="translate(599,555)" d="m0 0h14l13 2 16 4 12 4 16 8 9 5 14 11v2l5 2 9 9 8 11 6 8 6 9 3 7 5 11 3 11 2 4 2 17 1 2 1 10v9l-4 30-5 15-4 10-4 8-8 12-9 12-7 8-8 7-8 6h-2l-2 5-2 2v6l4 5 8 6v2l4 2v2l5 2 10 9 9 11v2l3 1 8 10 1 5 3 1 8 15 4 8 3 11 5 20 4 57v35l-4 12-6 6-6 3-14 9-6 3-9 6-10 7-10 6-11 7-13 8-11 7-15 9-10 7-11 7-12 8-3 1h-10l-25-13-8-6-10-6-13-8v-2l-6-2-9-6-11-7-5-3v-2l-6-2-4-4 5 1 6 4 1 2 6 3 11 7 27 18 6 3 11 7 9 6 17 8 8-1 15-9 7-5 5-3 33-21 12-7 7-5 11-6 24-16 13-8 8-5 6-2 2-4h2l3-13v-34l-2-28-1-24-3-12-2-10-4-14-10-20v-2l-3-1-6-10-3-3v-2l-4-2-9-11v-2l-5-2-10-9v-2l-4-2v-2l-4-2-7-5-2-3 1-9 6-7 9-7 8-6 7-8 8-11 5-8 4-5 3-7 2-6 3-7 3-11 1-2 3-28v-10l-3-24-3-9-2-8-4-9-8-16-6-8-11-14-9-9-4-3v-2l-4-2-13-9-6-3-8-5-11-4-9-3-2-1-14-2-7-2h-22l-20 3-9 1-7 3-14 5-4 3-12 6-10 6h-2l-1 3-7 5-6 7-5 5-7 8h-2l-2 4-9 16-5 11-3 7-2 10-2 6-2 33 2 24 5 18 10 19 3 6 6 9 5 8-3-1-7-11-5-7-10-21-2-3-4-13-3-27 1-17 2-20 3-9 2-8 7-17 9-14 4-5h2l2-5 18-18 4-1 1-3 9-5 11-7 17-8 12-4 22-4z" fill="#5F5F5F"/>
<path transform="translate(827,177)" d="m0 0h18l28 3 9 3 11 2 21 8 17 9 6 5 6 3 16 13 8 7 13 13 11 14 6 9 8 14 12 24 4 11 3 11v16l-5 9-4 5h-2l-2 6-2 4-2 12-3 16-3 7-2 9-4 10-6 12-6 11-4 6h-2l-2 5-12 15h-2l-2 5-8 7h-2l-2 4-13 10-12 8-4 4v6l8 6 3 2v2l5 2 6 5v2l4 2v2l4 2v2l4 2v2l4 2 8 8 15 21-1 2-3-3-6-9-10-13-8-7-6-7-7-6v-2l-5-2-5-4-3-3-10-7-2-7 10-8 7-4 15-12h2l1-3 8-7 5-6h2l2-4 12-16h2l1-4 6-9 2-7 6-11 3-8 3-13 2-5 3-17 3-12 4-6 5-5 4-9v-14l-4-16-4-10-12-24-6-9-5-9-8-10-24-24-11-9-21-14-16-8-21-7-20-5-25-2h-16l-29 2-8 3-10 2-5 2-7 2-10 4-14 7-4 3-15 9-11 10-9 6-5 6-7 8-13 17-7 11-3 5-5 10-6 16-3 9-5 20-2 7-2 21v16l2 15 8 8 6 5 6 9 9 17 5 9 10 15 3 3-1 2-1-3-3-1-5-8v-2h-2l-5-8-6-12-2-2-3-7-6-9v-2l-4-2v-2l-5-2-6-7-2-7-1-8v-18l4-28 2-4 2-13 3-9 5-13 3-7 10-18 8-11 11-15 8-9 8-7 12-10 9-7 6-3 14-9 11-5 11-4 8-3 12-2 5-2 14-2z" fill="#5F5F5F"/>
<path transform="translate(397,308)" d="m0 0 6 1 9 3 7 5 5 3 10 7 7 8 5 6 8 13 4 7 3 7 4 14 3 17v16l1 1v23l1 19 2 1-1-10 4-2 2 5v11l-2 2h-3l4 8 1 9v10l-7 9-11 10-11 7-12 8-17 9-18 5-3 1-11 1-11 2h-24l-12-2-9-2-3-2-9-2-20-8-3-2-7-2-9-7-5-4-8-7-11-11-2-4v-7l4-8 2-9 2-6 3-44 1-37 3-15 4-6 3-3 8-1h88l5-2 5-4 4-6 2-8 2-6 1-14zm1 2-5 5-1 3-1 16-3 7-4 8-8 7-4 1h-88l-8 2-4 4-4 14-1 40-3 43-2 8-2 5-2 7-2 3v8l7 8 13 13 10 8 8 4 16 6 3 2 7 2 5 2 7 2 5 2 16 2h22l24-3 24-8 11-6 24-16 14-13 3-5v-7l-3-12-3-6-2-10-1-15v-40l-3-17-4-15-4-9-8-13-5-8-12-12-13-9-6-5z" fill="#616161"/>
<path transform="translate(820,208)" d="m0 0h20l15 1 15 2 18 6 11 3 19 10 6 4 5 3 9 7v2l5 2 11 12 4 6 3 3 8 11 6 11 10 19 4 12v11l-5 8-13 5-4 1h-14l-9-4-5-4v-2l-4-2-4-8-3-10-2-20-4-5v-2l-5-1h-7l-9 3-24 12-16 5-8 2-13 4-11 2-14 1-11 2h-44l-11-2h-17l-6 4-2 7-1 19-4 11-9 10-10 6-8 4-7-1-5-2-3-9v-10l3-21 2-5 3-14 4-12 8-14 8-11 7-11 11-12 18-18 10-7 8-5 17-8 11-4 7-1 7-3 16-2zm1 2-20 3-5 2-9 2-5 2-7 2-22 12-14 10-11 11v2l-4 2-7 7-12 18-9 12-7 14-3 13-2 4-2 12-2 7-1 22 2 6 5 3h9l14-9 7-7 4-7 1-6 1-19 4-8 4-3 3-1h12l13 1 4 1h41l5-1 15-1 16-3 11-3 23-7 10-4 16-8 8-3 10-1 6 3 4 5 3 20 3 12 4 8 7 6 5 3 5 1h13l8-2 9-5 3-6v-11l-4-12-2-2-3-7-4-8-15-24-5-5-9-10-13-12-7-5-5-3-11-6-15-7-8-2-4-2-10-2-6-2-27-2z" fill="#626262"/>
<path transform="translate(531,855)" d="m0 0h6l4 5 5 6 12 12 5 2 8 4 4 5 10 2 2 2 8 1h26l16-6 11-8 3-1 2-4h2l1-4 9-12 4-2 5 1 10 7 16 16 2 6h2l5 8 2 5 4 8 4 10 4 9 2 6 3 27 2 33v19l-2 7-8 7-17 9-8 6-9 5-3 3-18 10-9 6-5 4-11 6-18 11-11 7-7 2h-7l-14-8-9-6-13-9-11-7-10-7-8-4-12-8-5-3-12-7-8-5-7-5-5-3-4-6-1-10 1-70 3-7 3-9 4-10 8-16 7-11 9-12 16-16zm1 2-8 7-12 12-8 11-3 6-5 8-7 15-4 9-2 9-2 3-1 47v24l2 10 3 5 6 3 8 6 5 3 12 7 8 5 12 7 8 5 7 5 8 4 11 8h2l1 3 6 3 8 6 8 4 8 1 9-3 11-7 9-6 6-3 8-5 6-3v-2l12-6 11-7 9-5 6-5 6-3v-2l20-10 8-6 3-4 1-4v-27l-4-49-5-16-16-32h-2l-2-5-19-19-5-4-6-1-4 2-9 13-5 6-15 11-11 4-5 1h-28l-12-3-9-4-7-5-7-3-5-6-3-3-6-8-8-7z" fill="#5E5E5E"/>
<path transform="translate(354,176)" d="m0 0h19l5 1h11l21 3 16 4 16 5 19 10 16 8 15 10 11 8 13 11 1 3 5 2 14 14 9 12 10 14 9 15 3 6-1 4-9-17-7-11-7-9-3-5-1-3-4-2-4-6-7-6-5-5-4-3v-2l-3-1-5-5-8-6-9-7-6-3-6-5-21-10-19-10-13-3-16-4-3-1-30-2h-24l-33 3-19 5-13 5-7 2-9 4-14 7-4 3-9 5-11 8-12 9-12 11-15 15-13 18-7 11-3 6-5 8-5 11-4 10-3 6-3 10-2 9-3 9-2 17-2 12v73l3 8 2 7 4 8 9 10 9 7v2l5 2 11 5 11 2 27 1 9 4 13 13 4 3v2l4 2v2h-2v-2l-4-2v-2l-5-2-14-14-4-1-29-1-14-4-14-8v-2l-5-2-10-9-4-6-4-8-4-13-1-17v-32l1-34 3-14 2-12 4-16 3-9 7-16 8-16 4-6 4-8 10-14 10-13 20-20 4-2 5-5 8-6 11-8 9-5 9-6 7-3 12-5 8-3 10-4 6-2 10-2 14-2 11-1 9-1z" fill="#5E5E5E"/>
<path transform="translate(888,330)" d="m0 0h7l6 4 6 10 7 10 6 5 9 7 11 5 7 3 18 2 4 2 4 8-3 9-6 16-7 13-11 16-14 15-13 12-16 10-8 4-7 2-12 6-16 4-16 2-20 1h-12l-13-4-12-4-10-4-3-2-9-3-12-7-7-6-6-3-12-12-8-11-5-7-10-18v-6l3-5 11-7 9-6 5-4h2l2-4 5-8 5-14 2-5 4-5 7-3 45-1 20-1 13-3 10-2 6-2 9-1 10-3 6-2 3-2zm-3 2-5 2-8 3-12 3-10 2-22 5-24 2-43 1-8 3-4 7-3 10-2 3-2 6-7 9-9 7-6 3-11 9-2 3 1 7 6 11 8 12 9 11 12 12 6 4 14 9 8 4 17 6 3 2 9 2 4 2 9 2 30-1 17-2 18-5 10-5 8-3 12-6 12-9 12-11 8-8 10-13 7-10 7-16 4-8 3-8-1-6-4-4-24-5-16-8-13-11-8-11-6-9-4-3z" fill="#606060"/>
<path transform="translate(505,657)" d="m0 0 12 2 22 6 9 1h73l32-1 5-2 15-2 5-2 25-1 5 4 2 7 3 21v17l-2 6-3 18-7 16-6 9-10 13-14 14-16 10-8 4-6 2-5 2-9 2-11 4h-24l-15-3-4-2-12-3-9-4-8-4-14-11v-2l-5-2-7-8-7-11-3-5-5-10-4-10-2-7-2-6-2-22 2-27 5-10zm-2 3-3 3-3 6-1 9-1 21 1 16 5 18 5 11 4 8 8 13 9 10 10 9 12 8 17 6 3 2 9 2 7 2 8 1h15l12-1 6-3 12-3 10-4 10-5 13-9 14-14 8-10 7-11 4-8 4-13 1-11 2-5 1-15-2-8-2-19-5-5-2-1-21 1-5 2-15 2-6 2-26 1h-77l-16-2-22-6z" fill="#646464"/>
<path transform="translate(256,537)" d="m0 0 12 7 8 6 7 3 3 6 4 4-4 5-6 4-7 5-5 3-13 12-15 16-9 12-8 13-8 16-4 12-3 12-2 4-2 19-2 12v156l3 15 4 2 8 5 5 4 6 3 6 5 6 3 13 8v2l5 2 14 9 9 6 11 7 10 7 11 7 12 7 11 7 10 7 6 3 6 5h-3l-7-5-11-6-6-4v-2l-6-2-9-6-11-6-8-6-10-6v-2l-6-2-6-4v-2l-6-2-11-7-7-5v-2l-6-2-9-6-5-3-7-5-9-5-3-3-7-4-3-4-2-9v-168l4-25 6-18 3-10 7-14 3-4 9-15 8-10 6-5 4-6 12-12 12-8 8-6 3-3-1-4-4-6-7-3-6-4v-2l-6-2-5-4z" fill="#727272"/>
<path transform="translate(252,248)" d="m0 0 2 1-11 8-11 9-11 11-7 8-3 6-6 8-6 11-6 12-5 12-3 7-6 25-1 3-2 22-1 3v52l3 15 6 9 10 5 14 1 9-2 9-9 4-6 1-4 1-55 1-13 4-19 2-6 2-10 4-10 7-10 8-5 3 1-11 8-6 10-4 13-2 10-2 4-3 26-1 49-1 10-4 7-7 8-5 4-5 2h-11l-12-3-8-6-6-9-3-13v-56l2-10 2-18 5-18 3-11 6-12 5-12 8-13 7-10 6-9 4-4 7-8 9-8 5-4h3l2-4z" fill="#575757"/>
<path transform="translate(669,857)" d="m0 0 5 1 10 7 16 16 2 6h2l5 8 2 5 4 8 4 10 4 9 2 6 3 27 2 33v19l-2 7-8 7-17 9-8 6-9 5-3 3-18 10-9 6-5 4-11 6-18 11-11 7h-8v-1l9-3 11-7 9-6 6-3 8-5 5-2 5-5 8-4 11-7 9-5 6-5 5-2 5-5 16-8 8-6 3-7v-27l-4-49-5-16-14-28-1-4h-2l-4-6-17-17-5-4-6-1-4 1-2 5-6 8-2 3h-2l-2 4-15 11-11 4-5 1h-28l-2-1v-2h31l16-6 11-8 3-1 2-4h2l1-4 9-12z" fill="#5F5F5F"/>
<path transform="translate(827,177)" d="m0 0h18l-1 2-45 3-8 3-10 2-5 2-7 2-10 4-14 7-4 3-15 9-11 10-9 6-5 6-7 8-13 17-7 11-3 5-5 10-6 16-3 9-5 20-2 7-2 21v16l2 15 8 8 6 5 6 9 9 17 5 9 10 15 3 3-1 2-1-3-3-1-5-8v-2h-2l-5-8-6-12-2-2-3-7-6-9v-2l-4-2v-2l-5-2-6-7-2-7-1-8v-18l4-28 2-4 2-13 3-9 5-13 3-7 10-18 8-11 11-15 8-9 8-7 12-10 9-7 6-3 14-9 11-5 11-4 8-3 12-2 5-2 14-2z" fill="#5F5F5F"/>
<path transform="translate(361,211)" d="m0 0h18l13 1 2 1 14 2 16 4 13 5 10 4 10 5 12 7 12 9 8 5 8 6 10 10 10 13 4 5-1 3-9-12-7-9-13-12-11-7-15-10-10-7-18-6-5-3-12-4-10-2-6-2-16-2-9-1h-18l-3 1-20 2-8 2h-7l-9 4-12 2-5 3-5 2-1 1-9 2-12 6-10 7-6 2v-2h2v-2l6-2v-2h3v-2l6-3 4-3 8-2v-2l18-7 16-4 20-4 6-1z" fill="#717171"/>
<path transform="translate(596,584)" d="m0 0h16l7 2 12 2 12 5 7 5 6 3 13 8v2l5 2 6 3 3 5 1 6-2 5-4 4-7 3-8 3-18 2-3 1h-72l-6-2-19-2-8-3-6-2-9-4-1-4 3-6 11-12 15-11 7-4 7-3 13-5zm1 2-20 3-9 3-20 10-11 9-9 9-4 5-1 5 2 2 11 4 8 2 1 1 20 2 7 2 44 1h16l19-3 12-1 16-8 2-2v-9l-2-4-6-3-5-3-3-3-11-6-9-6-12-5-10-3-12-2z" fill="#616161"/>
<path transform="translate(497,787)" d="m0 0 3 1 7 8 6 5v2l4 2 8 6 3 4 1 8-4 6-9 5-12 9-6 5-9 11-7 9-7 11-5 7-3 7-8 16-2 7-5 20-2 27-1 55 1 14 4 6 13 9 10 6 7 5 5 3 12 7 1 3h-2v-2l-6-2-9-6-5-3-7-5-11-6-10-8-4-6-1-4-1-17 2-65 1-12 7-27 13-26 13-19 4-6 5-5 7-8 10-8 15-10 2-3-1-9-9-8-4-3v-2l-5-2-3-4v-2l-4-2v-2h-2z" fill="#5F5F5F"/>
<path transform="translate(756,947)" d="m0 0h1l3 44v35l-4 12-6 6-6 3-14 9-6 3-9 6-10 7-10 6-11 7-13 8-11 7-15 9-10 7-11 7-12 8-3 1h-10l-25-13-8-6-10-6-13-8v-2l-6-2-9-6-11-7-5-3v-2l-6-2-4-4 5 1 6 4 1 2 6 3 11 7 27 18 6 3 11 7 9 6 17 8 8-1 15-9 7-5 5-3 33-21 12-7 7-5 11-6 24-16 13-8 8-5 6-2 2-4h2l3-13v-34l-1-15z" fill="#5F5F5F"/>
<path transform="translate(567,304)" d="m0 0 2 3 4 9 4 11 5 16 4 16 2 10 2 22 1 46-1 4-2 23-4 11-3 4-5 9-3 1-2 4h-2l-2 4-11 7-8 3-11 4h-18l-3-1h-12l-7 6-6 9h-2l-2 4-13 10-11 8-10 7-2 3-1 5-3-2 1-4 9-8 14-10 13-10 3-1 2-4h2l2-5 6-8 5-3h10l6 1h16l11-4 10-4 8-5h2l2-4h2l2-4h2l2-5 5-8 2-9 2-3 1-11v-66l-1-14-2-4-2-17-2-3-2-11-3-6-2-8-2-3-2-7-2-3z" fill="#606060"/>
<path transform="translate(599,555)" d="m0 0h14l13 2 7 2v1h-9l-7-2h-22l-20 3-9 1-7 3-14 5-4 3-12 6-10 6h-2l-1 3-7 5-6 7-5 5-7 8h-2l-2 4-9 16-5 11-3 7-2 10-2 6-2 33 2 24 5 18 10 19 3 6 6 9 5 8-3-1-7-11-5-7-10-21-2-3-4-13-3-27 1-17 2-20 3-9 2-8 7-17 9-14 4-5h2l2-5 18-18 4-1 1-3 9-5 11-7 17-8 12-4 22-4z" fill="#5F5F5F"/>
<path transform="translate(905,549)" d="m0 0 9 2 7 5 5 5 8 7 4 6 5 5 6 8 7 12 8 14 6 16 3 12v43h-1l-1-39-4-18-8-19-3-4-6-11-11-16-16-16-8-7-3-1h-7l-4 5-6 11-5 8-3 4h-2l-2 4h-2l-2 4-15 10-13 5-14 3h-10l-18-3-4-3-5-2-13-8v-2l-5-2-6-5-5-7v-2h-2v-2l3 1 8 10 16 12 15 8 17 2h8l13-2 18-8 4-3 5-3 3-1 1-3 5-5h2l6-12h2l1-6 8-11z" fill="#5D5D5D"/>
<path transform="translate(254,484)" d="m0 0h1l2 7 7 8 12 12 10 8 8 4 16 6 3 2 7 2 5 2 7 2 5 2 16 2h22l24-3 24-8 11-6 24-16 13-12 3-5 1-7h1l1 8-7 9-11 10-11 7-12 8-17 9-18 5-3 1-11 1-11 2h-24l-12-2-9-2-3-2-9-2-20-8-3-2-7-2-9-7-5-4-8-7-11-11-2-4z" fill="#606060"/>
<path transform="translate(319,571)" d="m0 0h15l13 2 41-1h16l4 3 1 12-3 6-2 7-3 5-10 13-7 7-10 5-5 2h-9l-13-4-9-7-10-14-8-16-3-8v-10zm2 2-1 1v12l4 10 5 9 5 8 9 10 9 5 9 2 9-1 12-5 10-9 8-11 3-5 3-10 1-2v-8l-4-5h-14l-41 1-12-2z" fill="#5F5F5F"/>
<path transform="translate(505,657)" d="m0 0 12 2 22 6 9 1h105v1l-22 1-3 1h-77l-16-2-22-6h-12l-2 7-2 6-1 25 1 16 5 18 5 11 4 8v3l-4-4-4-9-4-10-2-7-2-6-2-22 2-27 5-10z" fill="#606060"/>
<path transform="translate(789,521)" d="m0 0h82l5 3v9l-4 10-6 9-8 10-5 5-14 8-7 1h-8l-13-5-9-7-11-15-7-16v-9zm1 2-4 3 1 9 3 7 5 10 8 10 6 6 8 4 8 2 13-1 10-5 9-7 11-15 4-7 2-7v-6l-4-3z" fill="#5F5F5F"/>
<path transform="translate(521,291)" d="m0 0 3 1 7 12 6 10 3 7 4 10 3 8 2 7 2 9 2 7 3 15 1 10 1 29v36l-2 9-6 8-7 6-10 5h-18l-10-5-9-9-1-3 2-2 6 8 8 6 7 2h13l9-4 8-6 4-5 3-7v-64l-2-13-3-17-2-6-2-10-4-13-5-10-4-10-8-13-4-6z" fill="#616161"/>
<path transform="translate(388,177)" d="m0 0 22 3 16 4 16 5 19 10 16 8 15 10 11 8 13 11 1 3 5 2 14 14 9 12 10 14 9 15 3 6-1 4-9-17-7-11-7-9-3-5-1-3-4-2-4-6-7-6-5-5-4-3v-2l-3-1-5-5-8-6-9-7-6-3-6-5-21-10-19-10-13-3-16-4-3-1-30-2v-2z" fill="#5E5E5E"/>
<path transform="translate(961,413)" d="m0 0 1 2-7 12-10 14-12 13-7 7-10 8-13 8-8 4-7 2-12 6-16 4-16 2-20 1h-12l-13-4-12-4-8-3v-2l9 2 3 2 9 2 4 2 9 2 30-1 17-2 18-5 10-5 8-3 12-6 12-9 12-11 7-7 10-13 7-10z" fill="#5C5C5C"/>
<path transform="translate(979,577)" d="m0 0 5 5 2 5 3 5 4 10 3 7 4 14 3 15 1 3 1 21v72l-1 139-2 1v-226l-1-8-2-5-2-13-4-14-4-10-4-9-3-5-3-4z" fill="#5A5A5A"/>
<path transform="translate(233,855)" d="m0 0h2l2 5 10 7 9 5 3 3 5 3 7 5 5 3 7 5 11 6 9 6 5 3 7 5 11 6 10 7 9 6 11 7 9 6 14 10 8 6 10 8 3 3 1 4v8l-2 6-6 5-6 1-10-3-9-5-10-6 3-1 11 7 8 4 11 1 5-3 2-2v-14l-4-5-11-8-16-12-10-6-3-3-6-3-6-5-6-3-6-5-6-3-13-8-7-5-5-3-12-7-11-7-10-7-10-6-3-3-10-6-7-4-3-4z" fill="#5F5F5F"/>
<path transform="translate(726,960)" d="m0 0h2l2 33v19l-2 7-8 7-17 9-8 6-9 5-3 3-18 10-9 6-5 4-11 6-18 11-11 7h-8v-1l9-3 11-7 9-6 6-3 8-5 5-2 5-5 8-4 11-7 9-5 6-5 5-2 5-5 16-8 8-6 3-7v-27l-1-13z" fill="#606060"/>
<path transform="translate(571,832)" d="m0 0h21l40 1 4 2 1 2v10l-4 5-7 8-6 5-7 3-8 1h-10l-10-2-10-9-8-10-2-4v-7zm2 2-5 2-1 6 2 5 11 13 6 5 10 2h8l10-2 8-4 10-10 4-7-1-7-4-2h-27l-13-1z" fill="#5F5F5F"/>
<path transform="translate(465,392)" d="m0 0h2l1 7v16l1 1v23l1 19 2 1-1-10 4-2 2 5v11l-2 2h-3l4 8 1 17h-1v-6h-2l-3-12-3-6-2-10-1-15z" fill="#5A5A5A"/>
<path transform="translate(397,308)" d="m0 0 6 1 9 3 7 5 5 3 10 7 7 8 5 6 8 13 4 7 3 7 4 14 1 10-2 1-6-24-4-9-8-13-5-8-11-11-13-9-6-5-13-3-4 4-1 3-1 16-3 7-4 8-7 7-6 2h-12v-1l11-1 6-3 5-4 4-6 2-8 2-6 1-14z" fill="#5B5B5B"/>
<path transform="translate(479,937)" d="m0 0h1l1 71 2 10 2 5 6 2 8 6 5 3 12 7 8 5 12 7 8 5 7 5 8 4 13 9 3 3 5 3 7 5 8 4 12 2-3 2h-7l-14-8-9-6-13-9-11-7-10-7-8-4-12-8-5-3-12-7-8-5-7-5-5-3-4-6-1-10z" fill="#5E5E5E"/>
<path transform="translate(252,248)" d="m0 0 2 1-11 8-11 9-11 11-7 8-3 6-6 8-6 11-6 12-5 12-3 7-6 25-1 3-2 22-1 3-1 14h-2v-16l2-10 2-18 5-18 3-11 6-12 5-12 8-13 7-10 6-9 4-4 7-8 9-8 5-4h3l2-4z" fill="#606060"/>
<path transform="translate(354,176)" d="m0 0h19l5 1-2 2-37 2-20 2-19 5-13 5-7 2-9 4-14 7-4 3-9 5-7 5-2-1 5-5 9-6 10-5 5-3 8-4 15-5 5-3 12-4 10-2 14-2 11-1 9-1z" fill="#5B5B5B"/>
<path transform="translate(728,489)" d="m0 0 8 5 12 6 4 5v10l-9 6-14 10-17 16-5 8v6l6 8v2h12l6-2 5-5 3-1 2-4h2l2-4 6-4 7 1 7 10 1 5h2l1 4-2-1v-2h-2l-4-8-4-5-6-1-4 3h-2l-2 4h-2l-2 4h-2l-1 3-5 4-6 2h-8l-6-3-6-8-1-8 6-10 8-8 8-6 12-10 11-7v-9l-2-4-6-2-9-5-4-3z" fill="#616161"/>
<path transform="translate(337,213)" d="m0 0h24l-3 2-20 2-8 2h-7l-9 4-12 2-5 3-5 2-1 1-9 2-12 6-10 7-6 2v-2h2v-2l6-2v-2h3v-2l6-3 4-3 8-2v-2l18-7 16-4z" fill="#D7D7D7"/>
<path transform="translate(979,444)" d="m0 0 1 4-3 1-2 5-12 15h-2l-2 5-8 7h-2l-2 4-13 10-12 8-4 4v6l8 6 3 2v2l5 2 6 5v2l4 2v2l4 2v2l4 2v2l4 2 8 8 15 21-1 2-3-3-6-9-10-13-8-7-6-7-7-6v-2l-5-2-5-4-3-3-10-7-2-7 10-8 7-4 15-12h2l1-3 8-7 5-6h2l2-4 12-16h2z" fill="#5D5D5D"/>
<path transform="translate(201,864)" d="m0 0h1l3 15 4 2 8 5 5 4 6 3 6 5 6 3 13 8v2l5 2 14 9 9 6 11 7 10 7 11 7 12 7 11 7 10 7 6 3 6 5h-3l-7-5-11-6-6-4v-2l-6-2-9-6-11-6-8-6-10-6v-2l-6-2-6-4v-2l-6-2-11-7-7-5v-2l-6-2-9-6-5-3-7-5-9-5-3-3-7-4-3-4-1-4z" fill="#5F5F5F"/>
<path transform="translate(776,219)" d="m0 0h6v1l-7 2-22 12-14 10-15 15-8 9-10 15-9 12-7 14-3 13-2 4-2 12-2 7h-1v-9l2-5 3-14 4-12 8-14 8-11 7-11 11-12 18-18 10-7 8-5z" fill="#5E5E5E"/>
<path transform="translate(1e3 874)" d="m0 0 2 1-4 6-16 12-11 6-13 8-7 5-5 3-9 6-10 7-9 6-11 7-15 9-8 6-10 6-11 7-4 3-4-1 7-4 5-4 11-6 12-8 8-6 11-6 10-7 11-7 5-4 5-3 15-10 4-3 11-6 13-8 14-10z" fill="#606060"/>
<path transform="translate(596,584)" d="m0 0h15v1h-14v2l-20 3-9 3-20 10-11 9-8 8-4 5-1 5 12 5 8 2 1 1 20 2 7 2-2 2-13-2-12-1-8-3-6-2-9-4-1-4 3-6 11-12 15-11 7-4 7-3 13-5z" fill="#616161"/>
<path transform="translate(359,321)" d="m0 0 2 1-1 4-3 2h-85l-10 1 2-3 9-2h58l9 1h14l4-2z" fill="#7A7A7A"/>
<path transform="translate(680,824)" d="m0 0 11 7 2 4 4 2v2l5 2 10 9 9 11v2l3 1 8 10 1 5 3 1 8 15 4 8 3 11 5 20v29h-1l-1-24-3-12-2-10-4-14-10-20v-2l-3-1-6-10-3-3v-2l-4-2-9-11v-2l-5-2-10-9v-2l-4-2v-2l-4-2-7-5z" fill="#5E5E5E"/>
<path transform="translate(234,701)" d="m0 0h1v21l-1 59v67l2 5v6l-1-4h-2l-1-3v-132l1-15z" fill="#606060"/>
<path transform="translate(888,330)" d="m0 0h7l6 4 6 10 7 10 6 5 9 7 11 5 7 3 18 2 4 2 4 8-3 9-6 16-3 3-1-2 5-12 4-9 1-6-2-5-23-4-12-5-11-7-10-9-8-11-6-9-3-2-7-1z" fill="#646464"/>
<path transform="translate(511,755)" d="m0 0 5 5 6 9 15 14 12 8 17 6 3 2 9 2 7 2 8 1h27l-1 2-3 1h-24l-15-3-4-2-12-3-9-4-8-4-14-11v-2l-5-2-7-8-7-11z" fill="#5F5F5F"/>
<path transform="translate(706,731)" d="m0 0 1 2-5 12-6 10-8 10-7 8-10 10-16 10-8 4-6 2-5 2-9 2-4 2h-3v-2l6-3 12-3 10-4 10-5 13-9 13-13 8-10 7-11 4-8 2-5z" fill="#606060"/>
<path transform="translate(467,655)" d="m0 0h1v6l-2 6-2 33 2 24 5 18 10 19 3 6 6 9 5 8-3-1-7-11-5-7-10-21-2-3-4-13-3-27 1-17 2-20z" fill="#5F5F5F"/>
<path transform="translate(153,484)" d="m0 0 7 6 9 7v2l5 2 11 5 11 2 27 1 9 4 13 13 4 3v2l4 2v2h-2v-2l-4-2v-2l-5-2-14-14-4-1-29-1-14-4-14-8v-2l-5-2-9-8z" fill="#595959"/>
<path transform="translate(722,329)" d="m0 0h1v19l-4 11-9 10-10 6-8 4-7-1-5-2-3-9v-10l2-16h1v26l2 6 4 2h9l14-9 7-8 3-5 1-6 1-17z" fill="#5F5F5F"/>
<path transform="translate(818,957)" d="m0 0 2 1-5 5-11 8-4 3h-2l-2 5v6l5 10 4 2h8l10-4 11-7 21-14 3 1-10 7-5 3-7 5-5 3-11 6-7 3h-8l-6-5-6-10v-7l5-6 14-10z" fill="#616161"/>
<path transform="translate(143,362)" d="m0 0h1v10l-2 12v73l3 8 2 7 4 8 2 2-1 4-4-6-4-8-4-13-1-17v-32l1-34z" fill="#5E5E5E"/>
<path transform="translate(521,291)" d="m0 0 3 1 7 12 6 10 3 7 4 10 3 8 2 7 2 9 2 7 3 15 1 10v27h-1l-1-23-2-13-3-17-2-6-2-10-4-13-5-10-4-10-8-13-4-6z" fill="#5D5D5D"/>
<path transform="translate(374,271)" d="m0 0h16l6 3v2h6v1h-8l-8-3-6 1-7 2-3 5-2 7-2 13-2 15-2 5h-2l1-8 3-16 1-12 4-10z" fill="#5E5E5E"/>
<path transform="translate(735,737)" d="m0 0h2l-1 7-5 12-4 8-8 12-9 12-7 8-8 7-8 6h-2l-2 5-2 2v6l2 4-5-3 1-9 6-7 9-7 8-6 7-8 8-11 5-8 4-5 3-7 2-6 3-7z" fill="#5E5E5E"/>
<path transform="translate(769,571)" d="m0 0 3 1 8 10 16 12 15 8 17 2h8l13-2 13-5-1 3-10 4-14 3h-10l-18-3-4-3-5-2-13-8v-2l-5-2-6-5-5-7v-2h-2z" fill="#5E5E5E"/>
<path transform="translate(611,584)" d="m0 0 20 4 12 5 7 5 6 3 13 8v2l5 2 6 3 3 5 1 6-2 5-4 1 2-3v-9l-1-4-6-2-6-4v-2l-6-2-9-6-12-6-12-5-17-3-14-1v-1z" fill="#5E5E5E"/>
<path transform="translate(473,447)" d="m0 0 3 1 1 4v11l-2 2h-3l4 8 1 17h-1v-6h-2l-3-12-2-3-1-11 4 1-1-10z" fill="#545454"/>
<path transform="translate(447,975)" d="m0 0h1l1 43 1 14 4 6 13 9 10 6 7 5 5 3 12 7 1 3h-2v-2l-6-2-9-6-5-3-7-5-11-6-10-8-4-6-1-4-1-17z" fill="#676767"/>
<path transform="translate(733,315)" d="m0 0h12l13 1 4 1 42 1v2h-44l-11-2h-17l-6 4-2 7-3 1 3-9 6-5z" fill="#616161"/>
<path transform="translate(502,1071)" d="m0 0 5 1 6 4 1 2 6 3 11 7 27 18 6 3 11 7 9 6 11 5-4 1-17-9-8-6-10-6-13-8v-2l-6-2-9-6-11-7-5-3v-2l-6-2z" fill="#5E5E5E"/>
<path transform="translate(500,660)" d="m0 0 3 1h-2l-2 7-2 6-1 25 1 16 5 18 5 11 4 8v3l-4-4-4-9-4-10-2-7-2-6-2-22 2-27z" fill="#5E5E5E"/>
<path transform="translate(459,903)" d="m0 0 2 1-2 5-2 7-5 20-2 27-1 47h-1v-63l1-12 7-27z" fill="#595959"/>
<path transform="translate(233,855)" d="m0 0h2l2 5 10 7 9 5 3 3 5 3 7 5 5 3 7 5 11 6 9 6 5 3 7 5 7 4-3 1-11-7-4-3-5-3-12-7-11-7-10-7-10-6-3-3-10-6-7-4-3-4z" fill="#636363"/>
<path transform="translate(675,1088)" d="m0 0 2 1-9 6-8 5-15 9-10 7-11 7-12 8-3 1h-10l-6-3 4-1 4 2 8-1 15-9 7-5 5-3 33-21z" fill="#626262"/>
<path transform="translate(479,937)" d="m0 0h1l1 71 2 10 2 5 6 2 8 6 5 3 6 3-4 1-6-4-5-3-7-5-5-3-4-6-1-10z" fill="#5C5C5C"/>
<path transform="translate(820,208)" d="m0 0h20l15 1 15 2v1h-14l-17-1h-18l-20 3-5 2-9 2-1 1h-7l2-2 6-2 7-1 7-3 16-2z" fill="#5B5B5B"/>
<path transform="translate(878,300)" d="m0 0h5l-4 3-18 6-8 2-13 4-11 2-14 1-3 1h-8l-1-2 5-1 15-1 16-3 11-3 23-7z" fill="#5E5E5E"/>
<path transform="translate(319,571)" d="m0 0h15l13 2h40v2l-39 1-12-2h-17v11l-2-2v-10z" fill="#5A5A5A"/>
<path transform="translate(516,584)" d="m0 0 3 1h-2l-1 3-7 5-6 7-5 5-7 8h-2l-2 4-9 16-5 11-3 7-1 7h-1v-9l8-19 9-14 4-5h2l2-5 18-18 4-1z" fill="#5C5C5C"/>
<path transform="translate(172,408)" d="m0 0h2l1 38 3 15 6 9 10 5 7 1v1h-10l-9-6-3-3-4-7-3-13z" fill="#5C5C5C"/>
<path transform="translate(645,374)" d="m0 0 1 2h2l2 15 8 8 6 5 6 9 9 17 5 9 10 15 3 3-1 2-1-3-3-1-5-8v-2h-2l-5-8-6-12-2-2-3-7-6-9v-2l-4-2v-2l-5-2-6-7-2-7z" fill="#606060"/>
<path transform="translate(985,313)" d="m0 0 2 4 2 5v11l-5 8-13 5-4 1h-14l-9-4-5-4v-2l-4-2 1-3 1 3 4 2v2l5 2 3 2 5 1h13l8-2 8-4 3-6v-11l-1-2z" fill="#5D5D5D"/>
<path transform="translate(450,231)" d="m0 0 6 1 5 3 15 10 6 5 6 3 9 7 10 10 10 13 4 5-1 3-9-12-7-9-13-12-11-7-15-10-10-7-5-2z" fill="#5F5F5F"/>
<path transform="translate(388,177)" d="m0 0 22 3 16 4 16 5 11 6-4 1-11-6-13-3-16-4-3-1-30-2v-2z" fill="#606060"/>
<path transform="translate(996,266)" d="m0 0 4 4 17 34 4 11 3 11v16l-4 6-1-2 2-5v-14l-4-16-4-10-12-24-5-8z" fill="#616161"/>
<path transform="translate(670,1053)" d="m0 0 2 1-3 3-5 3-11 7-8 5-20 12-14 9h-8v-1l9-3 11-7 9-6 6-3 8-5 5-2 5-5 8-4z" fill="#5E5E5E"/>
<path transform="translate(914,510)" d="m0 0 3 1 5 5 7 5v2l5 2 6 5v2l4 2v2l4 2v2l4 2v2l4 2 8 8 15 21-1 2-3-3-6-9-10-13-8-7-6-7-7-6v-2l-5-2-5-4-3-3-10-7z" fill="#5E5E5E"/>
<path transform="translate(756,947)" d="m0 0h1l3 44v35l-3 2v-37l-1-15z" fill="#5D5D5D"/>
<path transform="translate(319,574)" d="m0 0h1l1 12 4 10 5 9 5 8 9 10 8 4 17 3v2h-9l-13-4-9-7-10-14-8-16-1-3z" fill="#5F5F5F"/>
<path transform="translate(498,896)" d="m0 0v3l-8 17-4 9-2 9-2 3-1 47h-1v-49l4-12 5-12 7-14z" fill="#6B6B6B"/>
<path transform="translate(232,400)" d="m0 0h1v58l-4 7-7 8-5 4-5 2h-11l-3-2 17-2 8-7 4-5 3-4 1-4z" fill="#646464"/>
<path transform="translate(268,623)" d="m0 0h2l-2 5-11 15-6 11-6 12-4 11-2 9-2 8-1 12h-1v-15l2-7 3-13 3-7 4-8 5-9 7-11 8-11z" fill="#5D5D5D"/>
<path transform="translate(779,483)" d="m0 0 9 2 3 2 9 2 4 2 9 2h39v1l-8 1-20 1h-12l-13-4-12-4-8-3z" fill="#595959"/>
<path transform="translate(776,219)" d="m0 0h6v1l-7 2-22 12-14 10-15 15-7 8-1-3 25-25 10-7 8-5z" fill="#626262"/>
<path transform="translate(289,188)" d="m0 0 3 1-5 4-7 2-9 4-14 7-4 3-9 5-7 5-2-1 5-5 9-6 10-5 5-3 8-4 15-5z" fill="#5F5F5F"/>
<path transform="translate(876,920)" d="m0 0 3 1-30 20-9 5-15 10-4 3-2-1 1-2 5-3 14-10 11-6 20-13z" fill="#5F5F5F"/>
<path transform="translate(827,177)" d="m0 0h18l-1 2-45 3-8 3-10 2-5 2-3-1 7-4 12-2 5-2 14-2z" fill="#5D5D5D"/>
<path transform="translate(397,308)" d="m0 0 6 1 3 2h-8l-4 4-1 3-1 16-3 7-4 8-7 7-6 2h-12v-1l11-1 6-3 5-4 4-6 2-8 2-6 1-14z" fill="#595959"/>
<path transform="translate(396,275)" d="m0 0h7l14 5 12 7 14 10 6 4v2l2 1-4-1-10-7-15-10-7-3-10-4-3-1v-2h-6z" fill="#616161"/>
<path transform="translate(648,880)" d="m0 0 3 1-15 11-11 4-5 1h-28l-2-1v-2h31l16-6z" fill="#606060"/>
<path transform="translate(753,351)" d="m0 0 4 1-4 1-2 5-4 12-2 3-2 6-8 10-9 7-6 3-6 5-4-1 10-7 11-7 4-2 2-4 5-8 5-14 2-5z" fill="#5E5E5E"/>
<path transform="translate(705,891)" d="m0 0 4 4 2 5 4 8 4 10 4 9 2 6 2 15v12l-2 1-2-25-5-16-13-26z" fill="#5C5C5C"/>
<path transform="translate(979,577)" d="m0 0 5 5 2 5 3 5 4 10 3 7 4 14 3 15 1 3v7h-2l-1-8-2-5-2-13-4-14-4-10-4-9-3-5-3-4z" fill="#5F5F5F"/>
<path transform="translate(728,489)" d="m0 0 8 5 12 6 4 5v10l-9 6-14 10-5 5-3-1 11-9 12-9 5-3v-9l-2-4-6-2-9-5-4-3z" fill="#666"/>
<path transform="translate(567,304)" d="m0 0 2 3 4 9 4 11 5 16 4 16 2 13-3-3-2-10-1-9-2-3-2-11-3-6-2-8-2-3-2-7-2-3z" fill="#606060"/>
<path transform="translate(905,549)" d="m0 0h3l1 3-5 2-6 9-3 6-5 8-3 4h-2l-2 4h-2l-2 4-15 10h-2l1-3 8-5 5-3 3-1 1-3 5-5h2l6-12h2l1-6 8-11z" fill="#5F5F5F"/>
<path transform="translate(784,524)" d="m0 0 4 1-1 1 1 9 3 7 5 10 8 10 5 5 12 6h-6l-11-7-5-6-8-11-7-16z" fill="#606060"/>
<path transform="translate(904,473)" d="m0 0 2 1-3 3-8 4-7 2-12 6-16 4h-17v-1l17-2 18-5 10-5 8-3z" fill="#616161"/>
<path transform="translate(633,834)" d="m0 0 3 1 1 2v10l-4 5-7 8-6 5-7 3-10 1-7-1v-1l15-2 9-4 8-7 6-7 1-7-1-3-3-2z" fill="#606060"/>
<path transform="translate(265,427)" d="m0 0h1v21l-2 18-3 7-2 7-2 3-1 7h-1v-9l3-5 2-9 2-6 2-33z" fill="#646464"/>
<path transform="translate(531,855)" d="m0 0 4 1h-3v2l-8 7-11 11-8 11-3 6-4 4-2-1 6-9 10-14 17-17z" fill="#5D5D5D"/>
<path transform="translate(286,606)" d="m0 0 6 1 5 8 2 5 5 8 6 8v2l3 1-1 2-5-5-8-11-8-15-4-1-8 6-8 9-1-2 7-8 7-7z" fill="#606060"/>
<path transform="translate(789,521)" d="m0 0h64v1l-23 1-7 1h-37z" fill="#555"/>
<path transform="translate(882,331)" d="m0 0h6l-3 2-5 2-8 3-12 3-10 2-22 5h-5l2-2 13-3 10-2 6-2 9-1 10-3 6-2z" fill="#616161"/>
<path transform="translate(655,314)" d="m0 0 1 2-6 23-3 37-2-2v-15l4-28 2-4 2-10z" fill="#5B5B5B"/>
<path transform="translate(216,642)" d="m0 0 1 3-3 6-3 10-3 12-2 4-2 19-2 12h-1v-13l3-20 6-18 3-10z" fill="#5F5F5F"/>
<path transform="translate(475,484)" d="m0 0h1l1 8-7 9-11 10-11 7-7 5-2-1 5-5 15-10 12-11 3-5z" fill="#5D5D5D"/>
<path transform="translate(445,344)" d="m0 0 4 2 5 8 4 7 3 7 4 14 1 10-2 1-6-24-4-9-8-13z" fill="#5E5E5E"/>
<path transform="translate(392,964)" d="m0 0 4 2 4 4 1 4v8l-2 6-6 5-6 1-10-3-9-5-10-6 3-1 11 7 8 4 11 1 5-3 2-2v-14l-4-5-2-1z" fill="#646464"/>
<path transform="translate(949,256)" d="m0 0 5 4 4 6 3 3 8 11 6 11 10 19v6h-1l-2-7-2-2-3-7-4-8-10-16-4-6v-2l-3-1-4-5v-2l-3-1z" fill="#5F5F5F"/>
<path transform="translate(467,655)" d="m0 0h1v6l-2 6-2 33v18h-1l-2-17 1-17 2-20z" fill="#646464"/>
<path transform="translate(446,559)" d="m0 0 8 6 9 5 5 6v15l-6 8-10 2-7-1v-1l12-1 6-4 3-4v-11l-3-5-4-4-7-3-5-5z" fill="#5D5D5D"/>
<path transform="translate(958,224)" d="m0 0 4 1 18 18 11 14 5 7-1 4-5-9-8-10-24-24z" fill="#5D5D5D"/>
<path transform="translate(298,940)" d="m0 0 4 2 11 7 12 7 11 7 10 7 6 3 6 5h-3l-7-5-11-6-6-4v-2l-6-2-9-6-11-6-7-6z" fill="#5D5D5D"/>
<path transform="translate(772,187)" d="m0 0 3 1-11 5-7 3-12 6-4 3-15 9h-3l7-6 6-3 14-9 11-5z" fill="#606060"/>
<path transform="translate(818,957)" d="m0 0 2 1-5 5-11 8-4 3h-2l-2 5v6l5 10 4 2-1 2-5-4-6-10v-7l5-6 14-10z" fill="#616161"/>
<path transform="translate(596,584)" d="m0 0h15v1h-14v2l-20 3-9 3-12 6-4-1 5-3 7-3 13-5z" fill="#5B5B5B"/>
<path transform="translate(955,376)" d="m0 0h10l4 2 4 8-3 9-6 16-3 3-1-2 5-12 4-9 1-6-2-5-12-2z" fill="#5F5F5F"/>
<path transform="translate(291,228)" d="m0 0 2 1-2 2-9 2-12 6-10 7-6 2v-2h2v-2l6-2v-2h3v-2l6-3 4-3 8-3z" fill="#C3C3C3"/>
<path transform="translate(741,685)" d="m0 0h2l1 7v9l-4 30-3 6-1-4 2-4 3-28z" fill="#5C5C5C"/>
<path transform="translate(497,787)" d="m0 0 3 1 7 8 6 5v2l4 2 8 6 3 4 1 8-4 2v-8l-3-5-11-9v-2l-5-2-3-4v-2l-4-2v-2h-2z" fill="#737373"/>
<path transform="translate(505,657)" d="m0 0 12 2 22 6 8 1v2h-7l-24-6-3-1-12-1z" fill="#5D5D5D"/>
<path transform="translate(367,281)" d="m0 0 2 4-4 24-2 10-1 3h-2l1-8 3-16 1-12z" fill="#5F5F5F"/>
<path transform="translate(593,833)" d="m0 0h39l1 2-17 1h-12l-11-1z" fill="#565656"/>
<path transform="translate(256,537)" d="m0 0 12 7 8 6 7 3 3 6 4 4-4 5-6 2 5-6-1-4-4-6-7-3-6-4v-2l-6-2-5-4z" fill="#606060"/>
<path transform="translate(599,555)" d="m0 0h14l13 2 7 2v1h-9l-7-2h-22l-11 1-2-2z" fill="#616161"/>
<path transform="translate(484,528)" d="m0 0 3 1-13 10-11 8-10 7-2 3-1 5-3-2 1-4 9-8 14-10z" fill="#616161"/>
<path transform="translate(508,1038)" d="m0 0 5 1 6 4 5 3 12 7 8 5 7 5 5 2-4 1-9-6-11-6-12-8-5-3-7-4z" fill="#606060"/>
<path transform="translate(232,781)" d="m0 0h1l1 67 2 5v6l-1-4h-2l-1-3z" fill="#727272"/>
<path transform="translate(965,619)" d="m0 0 3 4 5 18v43h-1l-1-39-4-18-2-4z" fill="#666"/>
<path transform="translate(504,507)" d="m0 0h10l8 2v2l-6-1h-12l-7 6-6 9h-2l-1 3-3-1h2l2-4h2l2-5 6-8z" fill="#616161"/>
<path transform="translate(451,196)" d="m0 0 7 1 19 10 18 12v2l-4-2-10-6-3-3-21-10-6-3z" fill="#5C5C5C"/>
<path transform="translate(479,870)" d="m0 0v3l-9 13-3 7-5 10-2 1 1-6 4-8 6-11 5-7z" fill="#5D5D5D"/>
<path transform="translate(279,570)" d="m0 0 2 1-8 6-5 3-13 12-6 7-1-4 14-14 12-8z" fill="#606060"/>
<path transform="translate(340,541)" d="m0 0h47l-3 2-8 1h-24l-12-2z" fill="#5E5E5E"/>
<path transform="translate(201,864)" d="m0 0h1l3 15 4 2 8 5 5 4 6 3 7 6h-3l-8-6-9-5-3-3-7-4-3-4-1-4z" fill="#616161"/>
<path transform="translate(313,640)" d="m0 0 4 2 9 8 9 5 6 3 10 3 9 1v1h-11l-12-4-11-6-3-2v-2l-5-2-5-5z" fill="#5C5C5C"/>
<path transform="translate(675,633)" d="m0 0h5l-2 3-7 3-8 3-20 2v-3l20-2z" fill="#5C5C5C"/>
<path transform="translate(1e3 874)" d="m0 0 2 1-4 6-16 12-11 6-9 5 2-4 6-3 13-8 14-10z" fill="#606060"/>
<path transform="translate(751,551)" d="m0 0 7 1 7 10 1 5h2l1 4-2-1v-2h-2l-4-8-4-5-6-1-4 3h-2l-2 4h-2l-2 4-3 1 1-3h2l2-4h2l2-4z" fill="#5B5B5B"/>
<path transform="translate(252,248)" d="m0 0 2 1-11 8-11 9-9 9h-2l2-4 10-10 8-6h3l2-4z" fill="#7A7A7A"/>
<path transform="translate(233,855)" d="m0 0h2l2 5 10 7 9 5 3 3 5 3 8 6-2 1-10-7-4-2-3-3-10-6-7-4-3-4z" fill="#5F5F5F"/>
<path transform="translate(697,459)" d="m0 0 4 2 7 8 13 13 4 3v2h-2v-2l-5-2-17-17-2-5h-2z" fill="#5C5C5C"/>
<path transform="translate(172,408)" d="m0 0h2l1 34-1 4h-2z" fill="#515151"/>
<path transform="translate(671,273)" d="m0 0 1 3-3 5-3 6-6 16-3 9-4 5 1-4 3-11 4-10 3-7 5-9z" fill="#606060"/>
<path transform="translate(399,652)" d="m0 0 3 1-11 7-15 4h-24v-1l20-1 17-4z" fill="#666"/>
<path transform="translate(715,265)" d="m0 0 1 3-10 15-9 12-3 6-2-2 7-11 8-11 6-9z" fill="#5E5E5E"/>
<path transform="translate(998,406)" d="m0 0h2l-2 5-3 9-6 12-6 11-3 3 1-4 5-8 2-7 6-11 3-8z" fill="#616161"/>
<path transform="translate(175,370)" d="m0 0h1v21l-1 3-1 14h-2v-16l2-10z" fill="#5D5D5D"/>
<path transform="translate(935,332)" d="m0 0 2 1v2l4 2v2l5 2 3 2 5 1 17 1-4 2h-14l-9-4-5-4v-2l-4-2z" fill="#575757"/>
<path transform="translate(521,291)" d="m0 0 3 1 7 12 6 10 3 7 3 11-3-3-6-16-6-9-6-10z" fill="#636363"/>
<path transform="translate(680,824)" d="m0 0 11 7 2 4 4 2v2l5 2 9 8-1 3v-2l-5-2-10-9v-2l-4-2v-2l-4-2-7-5z" fill="#5D5D5D"/>
<path transform="translate(556,452)" d="m0 0h1v7l-6 9-8 7-5 3-4-2 8-4 9-8 3-5z" fill="#5E5E5E"/>
<path transform="translate(490,256)" d="m0 0 4 2 8 7 5 5 10 13 4 5-1 3-9-12-7-9-14-13z" fill="#626262"/>
<path transform="translate(224,511)" d="m0 0 7 1 14 14 4 3v2l4 2v2h-2v-2l-4-2v-2l-5-2-14-14z" fill="#5E5E5E"/>
<path transform="translate(918,359)" d="m0 0 5 2 6 5 11 5 7 3 7 1 1 2-10-1-12-5-11-7z" fill="#606060"/>
<path transform="translate(923,199)" d="m0 0 7 2 7 6 6 3 16 13-3 1-5-5-13-9-12-8-3-1z" fill="#606060"/>
<path transform="translate(254,484)" d="m0 0h1l2 7 7 8 12 12-3 1-17-17-2-4z" fill="#5C5C5C"/>
<path transform="translate(733,315)" d="m0 0h12l13 1v1l-26 1-6 4-2 7-3 1 3-9 6-5z" fill="#656565"/>
<path transform="translate(951,543)" d="m0 0 5 3 8 8 15 21-1 2-3-3-6-9-10-13-8-7z" fill="#606060"/>
<path transform="translate(154,323)" d="m0 0 1 2-4 12-2 9-3 9-1 11h-1v-13l2-5 3-14 4-10z" fill="#5A5A5A"/>
<path transform="translate(853,521)" d="m0 0h18l3 3-44-1v-1z" fill="#606060"/>
<path transform="translate(495,220)" d="m0 0 4 2 10 8 8 7v2l5 2 3 4-5-2-5-4v-2l-3-1-5-5-12-9z" fill="#5F5F5F"/>
<path transform="translate(908,550)" d="m0 0 6 1 7 5 5 5 8 7 4 6-1 2-9-10-8-7-5-5-7-3z" fill="#5E5E5E"/>
<path transform="translate(588,441)" d="m0 0h1v13l-1 10-4 11-3 4-3 5-1-2 5-8 2-9 2-3z" fill="#646464"/>
<path transform="translate(608,804)" d="m0 0h12l-1 2-3 1h-24v-2z" fill="#575757"/>
<path transform="translate(801,211)" d="m0 0h16v1l-16 2-5 2-9 2-1 1h-7l2-2 6-2 7-1z" fill="#5E5E5E"/>
<path transform="translate(624,1120)" d="m0 0 3 1-15 10-3 1h-10l-6-3 4-1 4 2 8-1 10-6z" fill="#606060"/>
<path transform="translate(648,880)" d="m0 0 3 1-15 11-11 4-3-1 18-9z" fill="#636363"/>
<path transform="translate(167,293)" d="m0 0 1 4-7 14-4 10-3 3v-3l7-17z" fill="#5F5F5F"/>
<path transform="translate(924,235)" d="m0 0 4 1 10 8v2l5 2 6 6-1 4-7-8-14-12z" fill="#5F5F5F"/>
<path transform="translate(575,857)" d="m0 0 4 1 7 6 10 2v2h7v1l-16-1-8-6z" fill="#5C5C5C"/>
<path transform="translate(669,857)" d="m0 0 5 1v1l-9 2-2 5-6 8-2 3h-2l-1 3-3-1h2l2-4h2l1-4 9-12z" fill="#5C5C5C"/>
<path transform="translate(561,797)" d="m0 0h5l3 2 9 2 7 2 8 1-1 2-12-1-7-3-12-3z" fill="#5C5C5C"/>
<path transform="translate(547,504)" d="m0 0h5l-4 3-11 4h-15v-2l14-1z" fill="#5A5A5A"/>
<path transform="translate(749,468)" d="m0 0 5 1 9 6 8 4 8 3v2l-10-3-13-7-7-5z" fill="#5F5F5F"/>
<path transform="translate(527,823)" d="m0 0 1 2-3 4-9 5-8 6-2-1 5-5 12-8z" fill="#5B5B5B"/>
<path transform="translate(711,695)" d="m0 0h1v16l-2 9-2 11-3 1 2-8 1-11 2-5z" fill="#656565"/>
<path transform="translate(388,572)" d="m0 0h16l4 3v11h-1l-2-9-2-2h-16z" fill="#747474"/>
<path transform="translate(470,1051)" d="m0 0 6 1 8 6 5 3 12 7 1 3h-2v-2l-6-2-9-6-5-3-7-5z" fill="#606060"/>
<path transform="translate(752,922)" d="m0 0h1l3 12v29h-1l-1-24-2-7z" fill="#5B5B5B"/>
<path transform="translate(711,850)" d="m0 0 5 5 5 6v2l3 1 8 10v2h-2l-7-9v-2l-4-2-8-10z" fill="#606060"/>
<path transform="translate(140,455)" d="m0 0 3 4 3 12 3 4 2 5 2 2-1 4-4-6-4-8-4-13z" fill="#616161"/>
<path transform="translate(354,176)" d="m0 0h19l5 1-2 2-26 1z" fill="#555"/>
<path transform="translate(736,655)" d="m0 0 4 8 2 17 1 5-3-1-3-21-1-2z" fill="#616161"/>
<path transform="translate(319,574)" d="m0 0h1l1 12 4 10 5 9 1 3-3-1-8-16-1-3z" fill="#686868"/>
<path transform="translate(769,571)" d="m0 0 3 1 8 10 12 9-3 1-2-1v-2l-5-2-6-5-5-7v-2h-2z" fill="#5C5C5C"/>
<path transform="translate(254,205)" d="m0 0 3 1-4 3-9 5-7 5-2-1 5-5 9-6z" fill="#5C5C5C"/>
<path transform="translate(709,669)" d="m0 0h1l3 21v17h-1l-1-14-2-8z" fill="#585858"/>
<path transform="translate(961,413)" d="m0 0 1 2-7 12-7 10-3 1 2-4 7-10 6-10z" fill="#5D5D5D"/>
<path transform="translate(882,331)" d="m0 0h6l-3 2-5 2-8 3-7 2h-11v-1l9-1 10-3 6-2z" fill="#5D5D5D"/>
<path transform="translate(571,832)" d="m0 0h21l1 3h-25z" fill="#616161"/>
<path transform="translate(878,300)" d="m0 0h5l-4 3-18 6-4-1 9-4 9-3z" fill="#5D5D5D"/>
<path transform="translate(640,796)" d="m0 0h7v1l-6 2-5 2-9 2-4 2h-3v-2l6-3 12-3z" fill="#5E5E5E"/>
<path transform="translate(706,731)" d="m0 0 1 2-5 12-6 10-2 1 1-4 8-15 2-5z" fill="#5D5D5D"/>
<path transform="translate(949,256)" d="m0 0 5 4 4 6 3 3 7 10-1 3-7-10-1-4-3-1-4-5v-2l-3-1z" fill="#5E5E5E"/>
<path transform="translate(721,215)" d="m0 0 3 1-14 12-4 2-2 3-3-1 8-7z" fill="#5D5D5D"/>
<path transform="translate(735,737)" d="m0 0h2l-1 7-5 12-4 8-2 1 3-9 2-2 3-11z" fill="#626262"/>
<path transform="translate(180,352)" d="m0 0h1l-1 11-2 6-1 14h-1v-19l3-11z" fill="#656565"/>
<path transform="translate(650,1103)" d="m0 0 2 1-11 8-13 8-3-1 6-4 5-3 11-7z" fill="#5E5E5E"/>
<path transform="translate(502,1071)" d="m0 0 5 1 6 4 1 2 6 3 9 6-1 2-11-7-5-3v-2l-6-2z" fill="#606060"/>
<path transform="translate(368,947)" d="m0 0 4 1 15 11 5 4-1 2-16-12-7-5z" fill="#5E5E5E"/>
<path transform="translate(268,623)" d="m0 0h2l-2 5-11 15-4 7-1-3 7-11 8-11z" fill="#606060"/>
<path transform="translate(979,577)" d="m0 0 5 5 2 5 3 5 4 10 1 4h-2l-5-12-2-5-3-5-3-4z" fill="#616161"/>
<path transform="translate(475,484)" d="m0 0h1l1 8-7 9-4 4-4-1 8-7 4-6z" fill="#616161"/>
<path transform="translate(679,341)" d="m0 0h1v17l-1 13-2-4v-10z" fill="#545454"/>
<path transform="translate(303,220)" d="m0 0h5l-3 2-14 7h-8l3-2 15-6z" fill="#8F8F8F"/>
<path transform="translate(690,1040)" d="m0 0h5l-5 4-6 4-11 7-2-1 5-5 8-4z" fill="#5E5E5E"/>
<path transform="translate(838,572)" d="m0 0h5l-4 3-7 1h-8l-6-2v-1h13z" fill="#5A5A5A"/>
<path transform="translate(720,536)" d="m0 0 3 1-8 7-5 5-3 6h-2l2-5 4-6 7-7z" fill="#5D5D5D"/>
<path transform="translate(679,367)" d="m0 0h1l2 6 4 2 11 1-2 2-7 1-8-3-1-2z" fill="#5F5F5F"/>
<path transform="translate(722,329)" d="m0 0h1v19l-2 7h-1l1-25z" fill="#545454"/>
<path transform="translate(554,1066)" d="m0 0 5 1 13 9 4 5-5-2-10-7-7-5z" fill="#5D5D5D"/>
<path transform="translate(611,584)" d="m0 0 19 4v2l-19-3-14-1v-1z" fill="#666"/>
<path transform="translate(922,460)" d="m0 0h2l-2 4-9 7-6 4-2-1 4-4 11-8z" fill="#5D5D5D"/>
<path transform="translate(388,177)" d="m0 0 17 2v1h-29v-2z" fill="#676767"/>
<path transform="translate(670,1053)" d="m0 0 2 1-3 3-5 3-11 7-4 1 5-5 4-3 6-3z" fill="#646464"/>
<path transform="translate(419,633)" d="m0 0 1 3-3 1-2 5-8 7h-2v2l-5 1 4-4 8-7 5-6h2z" fill="#5A5A5A"/>
<path transform="translate(286,606)" d="m0 0h4l1 3-6 1-10 9-5 5 2-5 12-12z" fill="#6F6F6F"/>
<path transform="translate(465,392)" d="m0 0h2l1 7v14l-2 2z" fill="#5B5B5B"/>
<path transform="translate(866,212)" d="m0 0h7l15 5 8 2v1h-8l-6-3-10-2-6-2z" fill="#606060"/>
<path transform="translate(216,642)" d="m0 0 1 3-3 6-3 10-2 9h-1v-9l3-7 3-9z" fill="#5C5C5C"/>
<path transform="translate(904,473)" d="m0 0 2 1-3 3-8 4-7 2-5 1 5-4 8-3z" fill="#636363"/>
<path transform="translate(143,362)" d="m0 0h1v10l-2 12-1 7h-1v-15z" fill="#6A6A6A"/>
<path transform="translate(756,947)" d="m0 0h1l2 30-3-1z" fill="#6A6A6A"/>
<path transform="translate(498,896)" d="m0 0v3l-8 17-2-4 8-15z" fill="#626262"/>
<path transform="translate(540,787)" d="m0 0 4 1 10 5 8 3-1 2-9-3-8-4z" fill="#5E5E5E"/>
<path transform="translate(500,730)" d="m0 0 3 4 4 10 4 8v3l-4-4-4-9-3-7z" fill="#626262"/>
<path transform="translate(464,714)" d="m0 0h1l2 15 4 13-1 2-2-3-4-13z" fill="#5D5D5D"/>
<path transform="translate(384,621)" d="m0 0 3 1-8 6-10 3-2-2 13-5z" fill="#616161"/>
<path transform="translate(674,615)" d="m0 0h5l4 6 1 6-2 5-4 1 2-3v-9l-1-4-5-1z" fill="#6C6C6C"/>
<path transform="translate(383,347)" d="m0 0h2l-2 4-7 6-4 1h-12v-1l11-1 6-3 5-4z" fill="#666"/>
<path transform="translate(187,329)" d="m0 0h1l-1 7-2 5-3 12-2-1 1-6 3-11z" fill="#5D5D5D"/>
<path transform="translate(929,308)" d="m0 0h1l3 17 3 5v2h-2l-3-5-3-12z" fill="#656565"/>
<path transform="translate(234,217)" d="m0 0 2 1-5 6-10 7-4 1 4-5 10-7z" fill="#606060"/>
<path transform="translate(342,177)" d="m0 0h11l-3 3h-22v-1l11-1z" fill="#6A6A6A"/>
<path transform="translate(572,1115)" d="m0 0 4 2 11 6 8 4-4 1-17-9z" fill="#5C5C5C"/>
<path transform="translate(235,899)" d="m0 0 5 2 13 8v2l5 2 2 2-4-1-5-3v-2l-6-2-9-6z" fill="#5E5E5E"/>
<path transform="translate(545,640)" d="m0 0h20l7 2-2 2-13-2-12-1z" fill="#5D5D5D"/>
<path transform="translate(460,546)" d="m0 0h2l-1 3-8 5-2 3-1 5-3-2 1-4 9-8z" fill="#787878"/>
<path transform="translate(239,362)" d="m0 0h1v7l-2 4-2 15-3 1 4-21z" fill="#616161"/>
<path transform="translate(922,290)" d="m0 0 4 2 3 7v16h-1l-2-18-4-5z" fill="#5D5D5D"/>
<path transform="translate(695,1075)" d="m0 0 2 1-5 4-13 8-3-1 12-8z" fill="#5D5D5D"/>
<path transform="translate(358,979)" d="m0 0 5 1 9 6 8 4 6 1v1h-7l-11-6-10-6z" fill="#5D5D5D"/>
<path transform="translate(859,557)" d="m0 0 1 3-4 5-11 7-4-1 14-9z" fill="#626262"/>
<path transform="translate(445,344)" d="m0 0 4 2 5 8 3 5v2l-4-2-7-12z" fill="#5F5F5F"/>
<path transform="translate(334,963)" d="m0 0 4 2 11 6 9 7h-3l-7-5-11-6z" fill="#5F5F5F"/>
<path transform="translate(698,658)" d="m0 0 7 1 4 5v11h-1l-1-9-4-4-6-2z" fill="#5F5F5F"/>
<path transform="translate(926,498)" d="m0 0 2 1-8 6-2 2-2 4-3-2v-2l10-8z" fill="#7F7F7F"/>
<path transform="translate(728,391)" d="m0 0 2 1-4 4-6 3-6 5-4-1 10-7z" fill="#5E5E5E"/>
<path transform="translate(772,187)" d="m0 0 3 1-11 5-7 3-4-1 8-4z" fill="#616161"/>
<path transform="translate(875,959)" d="m0 0 2 1-5 4-12 8-4-1 7-4 5-4z" fill="#5D5D5D"/>
<path transform="translate(661,786)" d="m0 0h2l-1 3-13 7h-5l4-3 10-5z" fill="#636363"/>
<path transform="translate(530,633)" d="m0 0 12 3 3 2 8 1v1h-10l-11-3z" fill="#656565"/>
<path transform="translate(467,588)" d="m0 0 1 3-6 8-10 2-7-1v-1l12-1 6-4z" fill="#5C5C5C"/>
<path transform="translate(319,571)" d="m0 0h15v1h-14l-1 13-2-2v-10z" fill="#515151"/>
<path transform="translate(276,356)" d="m0 0m-1 1 3 2-4 2-4 11-1 5h-1v-9l4-8z" fill="#626262"/>
<path transform="translate(367,281)" d="m0 0 2 4-2 14-3 1 1-14z" fill="#5A5A5A"/>
<path transform="translate(980,246)" d="m0 0 4 2 12 16-1 4-5-9-8-10-2-1z" fill="#5F5F5F"/>
<path transform="translate(684,808)" d="m0 0 3 1h-2l-2 5-2 2v6l2 4-5-3 1-9z" fill="#777"/>
<path transform="translate(497,787)" d="m0 0 3 1 7 8 6 5v2l2 1-4-1v-2l-5-2-3-4v-2l-4-2v-2h-2z" fill="#5C5C5C"/>
<path transform="translate(483,352)" d="m0 0 4 2 4 12 1 4-4-2-3-12z" fill="#606060"/>
<path transform="translate(972,849)" d="m0 0h1v12l-3 4-5 2-2 2-3-1 10-7 1-2z" fill="#626262"/>
<path transform="translate(391,328)" d="m0 0h1v6l-3 7-3 6h-2l2-4 2-8z" fill="#5E5E5E"/>
<path transform="translate(671,273)" d="m0 0 1 3-3 5-3 6-3 7h-2l3-9 5-9z" fill="#626262"/>
<path transform="translate(291,228)" d="m0 0 2 1-2 2-9 2-6 3-3-1 6-2v-2l4-2z" fill="#F3F3F3"/>
<path transform="translate(349,628)" d="m0 0h8l12 2v2h-9l-11-3z" fill="#5D5D5D"/>
<path transform="translate(944,484)" d="m0 0 3 1-13 10-5 3-2-1 13-10z" fill="#616161"/>
<path transform="translate(808,316)" d="m0 0h17v1l-13 2h-8l-1-2z" fill="#595959"/>
<path transform="translate(318,180)" d="m0 0h21v1l-20 2-5 1z" fill="#555"/>
<path transform="translate(708,1029)" d="m0 0 2 1-3 3-9 5-2 2-3-1 9-7z" fill="#656565"/>
<path transform="translate(933,884)" d="m0 0 2 1-8 7-6 4-4-1 11-7z" fill="#616161"/>
<path transform="translate(239,681)" d="m0 0 1 3-3 10-1 12h-1v-15l2-7z" fill="#626262"/>
<path transform="translate(487,613)" d="m0 0 1 3-9 15-3 1 2-5 7-11z" fill="#616161"/>
<path transform="translate(284,558)" d="m0 0 6 4-4 6-6 2 5-6z" fill="#989898"/>
<path transform="translate(629,560)" d="m0 0h10l12 4 2 3-12-3-3-2-9-1z" fill="#5B5B5B"/>
<path transform="translate(905,549)" d="m0 0h3l1 3-5 2-7 10-1-3 8-11z" fill="#717171"/>
<path transform="translate(180,466)" d="m0 0 5 5 9 4 7 1v1h-10l-9-6-2-2z" fill="#616161"/>
<path transform="translate(1e3 382)" d="m0 0h1v12l-3 7-1 5h-1v-8l3-8z" fill="#5A5A5A"/>
<path transform="translate(1016,308)" d="m0 0h3l4 14v3l-3-1-3-13z" fill="#5F5F5F"/>
<path transform="translate(680,258)" d="m0 0h2l-2 5-8 12 1-7z" fill="#5D5D5D"/>
<path transform="translate(435,224)" d="m0 0 10 3 5 3v2l-9-3-5-2z" fill="#787878"/>
<path transform="translate(393,180)" d="m0 0h17l7 3v1l-8-1-3-1-13-1z" fill="#595959"/>
<path transform="translate(735,1050)" d="m0 0 3 1-8 5-6 3-5 3 1-3 13-8z" fill="#626262"/>
<path transform="translate(532,663)" d="m0 0 7 2 8 1v2h-7l-12-3z" fill="#636363"/>
<path transform="translate(675,633)" d="m0 0h5l-2 3-7 3-5 1-1-2z" fill="#5F5F5F"/>
<path transform="translate(806,492)" d="m0 0 18 2v2h-12l-3-1v-2z" fill="#626262"/>
<path transform="translate(742,375)" d="m0 0h2l-1 4-8 10-5 3 2-4 3-1 2-4z" fill="#636363"/>
<path transform="translate(955,376)" d="m0 0h10l4 2 1 5-2-1v-2l-12-2z" fill="#808080"/>
<path transform="translate(419,219)" d="m0 0 9 1 7 3v2l-9-2-7-3z" fill="#6D6D6D"/>
<path transform="translate(233,855)" d="m0 0h2l2 5 11 8-2 1-7-4-5-5z" fill="#585858"/>
<path transform="translate(757,552)" d="m0 0 4 4 4 6 1 5h2l1 4-2-1v-2h-2l-4-8-4-5-2-2z" fill="#606060"/>
<path transform="translate(983,338)" d="m0 0h2l-1 3-9 4h-8v-1l8-2z" fill="#616161"/>
<path transform="translate(521,291)" d="m0 0 3 1 7 12 2 5h-2l-6-10-4-6z" fill="#5F5F5F"/>
<path transform="translate(351,935)" d="m0 0 5 2 9 6 4 4-6-2-9-7-3-1z" fill="#626262"/>
<path transform="translate(454,920)" d="m0 0 1 3-3 13-3 1 3-15z" fill="#5E5E5E"/>
<path transform="translate(705,891)" d="m0 0 4 4 2 5 3 7-1 3-8-16z" fill="#626262"/>
<path transform="translate(956,602)" d="m0 0 5 5 4 8v6l-7-14z" fill="#626262"/>
<path transform="translate(498,601)" d="m0 0h2l-2 4-7 8h-2l-1 2 1-4h2l2-5z" fill="#5C5C5C"/>
<path transform="translate(751,505)" d="m0 0h1v10l-7 5-4-1 8-5z" fill="#5E5E5E"/>
<path transform="translate(244,346)" d="m0 0h1l-1 7-2 6-1 7h-1v-12z" fill="#5E5E5E"/>
<path transform="translate(817,995)" d="m0 0 4 1-8 4h-8v-2l10-2z" fill="#606060"/>
<path transform="translate(580,891)" d="m0 0h5l5 3v2l-7-1-6-2z" fill="#5F5F5F"/>
<path transform="translate(327,536)" d="m0 0 5 1 5 2 12 1v1h-16l-6-4z" fill="#6B6B6B"/>
<path transform="translate(147,342)" d="m0 0h1v9l-2 4-1 11h-1v-13l2-5z" fill="#5F5F5F"/>
<path transform="translate(401,311)" d="m0 0h10l5 4 4 3v2l-4-2-5-4-10-2z" fill="#626262"/>
<path transform="translate(776,219)" d="m0 0h6v1l-7 2-9 5h-2l1-3z" fill="#616161"/>
<path transform="translate(618,1085)" d="m0 0 2 1-4 4-5 3h-8v-1l9-3z" fill="#6D6D6D"/>
<path transform="translate(708,404)" d="m0 0 4 1-4 5v6l-3-1v-6z" fill="#676767"/>
<path transform="translate(818,957)" d="m0 0 2 1-5 5-7 5-3-1 9-7z" fill="#626262"/>
<path transform="translate(523,624)" d="m0 0 1 4 1 3 5 2 1 2-8-2-2-2 1-6z" fill="#595959"/>
<path transform="translate(1006,370)" d="m0 0h2l-1 8-2 8h-1v-10z" fill="#626262"/>
<path transform="translate(396,275)" d="m0 0h7l9 3-2 2-5-1-3-1v-2h-6z" fill="#656565"/>
<path transform="translate(524,245)" d="m0 0 4 2 7 7-1 3-10-10z" fill="#5D5D5D"/>
<path transform="translate(495,220)" d="m0 0 4 2 10 8 1 2-4-2-11-8z" fill="#616161"/>
<path transform="translate(451,196)" d="m0 0 7 1 9 5v2l-5-2-11-5z" fill="#5D5D5D"/>
<path transform="translate(314,181)" d="m0 0 3 1-5 3-9 1-2-2z" fill="#646464"/>
<path transform="translate(630,1077)" d="m0 0 2 1-5 5-6 4-2-1 5-5z" fill="#606060"/>
<path transform="translate(699,841)" d="m0 0 4 1 8 7-1 3v-2l-5-2z" fill="#5E5E5E"/>
<path transform="translate(696,798)" d="m0 0h2l-2 4-8 6-3-1 9-7z" fill="#5C5C5C"/>
<path transform="translate(729,640)" d="m0 0 3 1 4 10v7h-1l-2-8-4-9z" fill="#5C5C5C"/>
<path transform="translate(495,515)" d="m0 0 1 3-5 7h-2l-1 3-3-1h2l2-4h2l2-5z" fill="#5E5E5E"/>
<path transform="translate(706,416)" d="m0 0 3 1 6 11 1 2-4-2z" fill="#626262"/>
<path transform="translate(662,404)" d="m0 0h2l6 9 3 5-1 3-6-10z" fill="#5C5C5C"/>
<path transform="translate(849,340)" d="m0 0h11v1l-10 2-3 1h-9v-1l10-2z" fill="#636363"/>
<path transform="translate(167,293)" d="m0 0 1 4-6 11h-2l2-5z" fill="#636363"/>
<path transform="translate(410,279)" d="m0 0 7 1 3 2v2l2 1-6-1-2-2-4-1z" fill="#5C5C5C"/>
<path transform="translate(784,524)" d="m0 0 4 1-1 1v11l-3-4z" fill="#616161"/>
<path transform="translate(715,265)" d="m0 0 1 3-7 11-1-4z" fill="#616161"/>
<path transform="translate(938,247)" d="m0 0 5 1 6 6-1 4-7-8z" fill="#616161"/>
<path transform="translate(407,215)" d="m0 0 11 3 1 2-9-1-3-1z" fill="#818181"/>
<path transform="translate(780,184)" d="m0 0h11v1l-10 2-5 2-3-1z" fill="#595959"/>
<path transform="translate(503,885)" d="m0 0h1l-1 7-5 5-2-1 6-9z" fill="#5C5C5C"/>
<path transform="translate(979,444)" d="m0 0 1 4-3 1-2 5-3 4h-2l2-5 5-6h2z" fill="#5A5A5A"/>
<path transform="translate(918,359)" d="m0 0 5 2 6 5 3 2-6-1-8-7z" fill="#5C5C5C"/>
<path transform="translate(193,316)" d="m0 0h2l-3 9-3 6-1-4z" fill="#616161"/>
<path transform="translate(567,304)" d="m0 0 2 3 4 9 1 4-3-1-2-7-2-3z" fill="#636363"/>
<path transform="translate(560,291)" d="m0 0 4 5 3 6-1 4-6-11z" fill="#606060"/>
<path transform="translate(511,276)" d="m0 0 5 5 4 6 1 4-5-5-5-7z" fill="#5F5F5F"/>
<path transform="translate(477,247)" d="m0 0 4 2 8 5v3l-12-8z" fill="#5C5C5C"/>
<path transform="translate(624,1120)" d="m0 0 3 1-12 8h-2v-2l6-4z" fill="#656565"/>
<path transform="translate(905,940)" d="m0 0h2v2l-11 6-3-1 6-4z" fill="#5B5B5B"/>
<path transform="translate(289,896)" d="m0 0 5 1 10 7-3 1-3-3-6-3z" fill="#5C5C5C"/>
<path transform="translate(633,890)" d="m0 0v3l-8 3-3-1 8-4z" fill="#5F5F5F"/>
<path transform="translate(500,660)" d="m0 0 3 1h-2l-2 7-2 6h-1v-7z" fill="#646464"/>
<path transform="translate(232,614)" d="m0 0h2l-2 5-6 9-1-3 3-5z" fill="#5F5F5F"/>
<path transform="translate(895,564)" d="m0 0h2l-2 5-5 8-2 1 2-4 3-7h2z" fill="#626262"/>
<path transform="translate(952,426)" d="m0 0 1 4-5 7-3 1 2-4z" fill="#646464"/>
<path transform="translate(728,317)" d="m0 0h2l-1 3-3 2-2 7-3 1 3-9z" fill="#616161"/>
<path transform="translate(892,293)" d="m0 0 2 1-3 3-6 3-4-1z" fill="#666"/>
</svg>
