<?xml version="1.0" encoding="UTF-8"?>
<svg version="1.1" viewBox="0 0 1952 1600" width="1280" height="1280" xmlns="http://www.w3.org/2000/svg">
<path transform="translate(1417,117)" d="m0 0h21l17 3 15 6 14 9 10 9 11 14 9 19 5 18 9 52 10 70 10 62 6 41 8 47 8 53 9 52 8 57 3 31v14l-2 18-6 24-7 21-11 27-28 70-17 41-14 36-15 36-18 46-15 37-15 38-17 41-10 26-8 24-1 7 7 27 7 23 1 13-4 10-34 51-12 16-10 13-11 16-14 19-11 14-14 18-10 14-13 15-7 6-6-1-8-4-15-10-14-9-14-10-17-12-18-13-14-10-19-14-17-12-18-13-19-14-16-12-10-8-6-5-5-10-4-21-18-112-24-152-5-35v-20l4-13 8-17 7-11 14-19 13-19 11-15 13-17 10-14 13-19 27-36 7-11 8-11 14-19 12-16 8-12 12-17 10-13 13-18 12-17 13-18 11-14 9-12 5-12v-9l-7-47-12-72-20-122-6-36-3-27v-20l2-10 6-17 7-11 11-13 10-9 14-9 15-7 14-4 15-2h9l21 5 4 2h5l15-10 18-10 14-6zm3 50-13 4-10 7-7 8-5 12-1 6v16l5 39 15 94 7 47 9 55 9 56 9 52 7 28 1 6v12l-2 12-8 20-6 11-11 16-14 20-12 17-11 14-12 17-7 10-13 18-10 13-4 6-13 18-7 10-14 19-10 13-8 11-12 17-10 13-7 8-4 2-8 1-11-3-8-5-6-5-2-4 1-10 4-8 8-12 11-15 12-17 7-11 13-18 10-13 11-16 10-14 24-32 9-13 14-20 14-18 9-13 11-16 8-13 4-11 1-5v-8l-4-12-4-8-9-10-10-6-11-3h-14l-8 2-7 4-18 18-9 13-13 18-8 12-10 13-10 14-13 19-14 19-9 12-13 18-9 13-14 19-9 12-7 10-12 17-12 16-13 18-13 19-14 19-10 12-10 14-10 15-11 17-3 9v19l3 30 6 39 8 50 7 45 9 56 6 42 5 26 3 7 13 13 19 13 18 13 17 12 16 12 15 11 17 12 24 18 14 10 3 2 4-1 7-9 6-9 24-34 16-23 10-14 14-19 10-15 6-14v-7l-6-29-5-21-1-9 9-25 15-36 15-38 25-62 26-65 12-29 6-16 24-60 11-28 17-41 11-28 8-21 4-17 2-14v-28l-3-26-12-80-10-61-14-88-17-105-10-66-4-18-4-11-6-10-7-7-10-5-7-2zm-107 22-16 4-10 6-9 9-4 11-1 5v23l4 33 16 104 7 46 11 76 2 8 8-1 21-5 34-1 1-1-1-16-12-75-8-51-15-93-5-32-2-20-1-22-3-5-3-2-5-1z"/>
<path transform="translate(405,115)" d="m0 0h14l17 4 16 8 11 7 12 9 8 4 10-2 13-4 8-1h12l19 3 16 6 11 6 14 11 9 9 10 15 7 17 3 12v26l-5 34-12 77-7 39-10 64-8 49-6 38v8l10 17 12 16 14 19 12 17 10 14 12 16 10 14 26 36 11 15 12 17 52 72 28 38 26 36 9 15 6 15 5 18v16l-8 49-7 48-7 38-7 50-5 29-5 28-6 42-6 34-5 10-7 7-10 7-10 8-6 4-13 10-16 11-38 28-14 10-16 11-10 7-19 14-27 18-16 11-8 2-8-7-10-11-15-20-16-21-12-17-13-18-12-16-14-19-13-18-11-16-11-17-5-11v-9l4-16 3-19 4-11 1-5v-7l-4-17-11-30-11-28-13-33-12-30-11-28-40-100-11-27-16-40-32-79-11-29-6-19-4-20-1-11v-15l3-32 7-46 6-42 5-29 6-39 8-53 7-39 7-41 7-37 7-46 5-21 9-26 4-8 4-4 7-3 9-2 6-8 8-15 4-12 4-15 6-9 9-7 11-5zm-7 52-12 3-8 4-7 8-5 15-7 35-9 57-10 67-9 58-6 42-10 60-6 41-8 46-4 29-2 23v14l2 17 5 20 7 19 10 25 12 29 8 21 11 27 16 40 13 32 20 50 13 32 36 90 12 29 10 25 5 13 2 9 1 16-2 17-6 27-2 7v8l12 20 14 19 13 18 12 17 13 18 12 17 11 16 7 9 3 2 6-1 10-9 38-28 17-12 38-28 24-16 11-8 11-10 4-10 7-43 5-30 6-45 9-50 8-58 9-49 2-15v-20l-7-14-24-34-26-36-12-17-11-15-13-18-14-20-12-16-26-36-14-19-26-36-10-14-13-18-14-19-12-17-10-13-9-11-5-6-9-7-13-4h-18l-10 3-10 9-8 11-5 12-1 4v8l5 14 10 18 9 13 8 11 12 16 13 18 20 28 9 12 13 18 10 14 13 18 12 16 12 17 14 19 10 14 9 16 2 5v6l-6 10-9 6-8 3h-6l-10-6-7-7-14-19-13-18-14-19-26-36-28-38-12-17-15-20-28-38-14-21-9-15-7-16-3-11v-19l5-25 5-24 11-69 6-40 8-53 7-41 10-65 6-35 3-23v-22l-2-9-7-11-11-7-11-4zm113 22-6 3-1 2-2 25-9 56-8 53-9 53-7 48-10 59-2 13v5l7 1 28 1 12 2h18l2-6 7-55 8-50 6-39 9-56 7-43 2-17 1-17-2-10-6-12-9-8-10-5-12-3z"/>
<path transform="translate(794,291)" d="m0 0h37l18 3 17 5 16 7 19 11 14 10 5-2 14-10 19-11 14-6 13-4 18-3h39l23 4 16 5 16 7 18 11 14 11 10 9 10 11 11 16 10 18 9 24 4 17 1 6 1 21-1 19-4 20-5 17-9 21-11 21-17 26-11 16-13 16-12 13-7 8-6 5-3 4h-2v2l-8 7-9 9-8 7-9 9-11 9-13 12-8 7-13 11-16 13-9 7-12 10-11 9-11 10-10 7-12 7-15-5-13-7-19-14-16-13-14-11-11-10-8-7-14-12-15-14-8-7-16-15-16-16-7-8-16-17-9-11-9-10-14-19-12-18-9-15-8-16-10-23-6-20-4-19-1-12v-13l3-20 6-21 6-15 10-19 8-12 11-13 13-13 15-11 17-10 19-8 18-5zm11 48-21 3-21 7-16 9-13 11-12 14-7 10-10 21-4 15-1 9v27l4 20 5 13 11 23 8 12 14 20 11 14 8 10 11 13 9 10 7 8 26 26 8 7 10 10 8 7 13 12 11 9 17 14 15 11 18 12 6-1 11-9 16-12 15-13 10-9 8-7 13-12 10-9 31-29 8-8 7-8 13-14 9-11 10-11 13-17 10-15 13-23 4-10 7-24 2-13 1-19-2-15-3-10-8-19-7-11-9-11-10-10-16-11-17-8-13-4-16-3h-25l-20 4-16 6-10 6-17 13-7 7-13 8-9 1-16-8-10-8-17-13-15-8-20-6-10-2-11-1z"/>
</svg>
