<?xml version="1.0" encoding="UTF-8"?>
<svg version="1.1" viewBox="0 0 1328 1284" width="1280" height="1280" xmlns="http://www.w3.org/2000/svg">
<path transform="translate(252,185)" d="m0 0h383l495 1 5 3 5 6 1 2 1 10v576l-1 12-6 8-4 2-16 1h-886l-9-2-7-8-2-8v-588l3-7 7-6 2-1zm-6 35v551h51l1-53 1-15 4-18 8-20 11-18 12-14 14-11 13-8 12-6 17-5 4-1-2-4-10-15-8-16-2-3-32-1-13-4-9-6-6-5-7-10-5-12-1-5v-17l4-13 7-11 7-7 15-9 1-18 4-20 6-18 11-21 9-12 9-10v-2l4-2 10-9 15-10 19-9 20-6 12-2 12-1h11l19 2 17 4 20 8 14 8 12 9 12 11 9 10 10 15 8 16 7 21 3 17 2 16 19 1 8 3 5 6 1 3v78l-5 8-2 1v2l-67 1-8 17-10 15-3 4v2l15 4 16 7 15 9 13 11 7 7 11 15 8 15 5 13 4 17 1 8 1 63h465v-551zm217 136-19 3-17 6-16 9-11 9-9 9-8 11-8 14-6 18-3 18v8h95l13-4 10-6 6-5 7-9 5-11 2-8 2-15 4-6 8-4 9 1 7 4 3 6 3 19 5 12 8 11 10 8 8 4h2v-9l-3-16-6-17-6-11-10-14-8-8-10-8-15-9-16-6-14-3-8-1zm57 106-9 10-8 7-14 8-14 5-10 2-17 1h-46l-2 2 1 41 4 16 7 14 9 11 12 9 14 7 12 3h22l16-5 13-7 12-11 6-8v-3h-23v-33l34-1v-51l-15-15-1-2zm54 33-1 1v34h34l1-18v-16zm-211 0-20 1-6 4-4 6-1 3v7l4 8 4 4 5 2h21l1-33zm90 138 2 4 13 18h4l12-17 3-5zm-46 1-17 4-14 6-14 10-10 10-7 10-8 16-3 9-2 13v59h34l1-2v-66h33l1 68h138v-69l33 1 1 68h34l1-4-1-60-4-16-5-11-7-12-12-13-11-8-16-8-14-4-8-1-8 9-10 14-16 21-12 16-7 6-7 2-8-2-5-4-15-20-16-21-10-14-6-7z"/>
<path transform="translate(201,117)" d="m0 0h951l16 4 11 6 9 7 8 8 8 13 4 10 2 8 1 26-1 686-3 13-8 16-11 12-9 7-12 6-15 4-320 1v102l26 1 16 4 15 8 13 12 9 14 5 13 2 16v53l-2 8-7 8-3 1-164 1h-285l-11-1-8-7-3-9v-57l3-16 6-14 8-11 8-8 11-7 8-4 15-4h27v-103l-321-1-14-4-12-6-9-7-7-7-9-14-5-13-2-17v-689l2-17 5-14 8-12 9-10 14-9 12-5zm5 34-10 3-8 6-7 8-3 7-1 5v700l3 10 6 8 7 6 8 4 4 1 372 1 571-1 11-4 10-9 6-12 1-7v-696l-3-10-6-9-8-7-13-4zm351 792-1 1v103h241v-103l-1-1zm-58 138-10 3-8 6-7 8-4 11v41h413v-40l-3-10-6-8-8-7-8-3-7-1z"/>
<path transform="translate(764,254)" d="m0 0h250l17 1 10 3 9 5 10 9 6 8 5 11 2 11v209l-1 13-5 13-7 10-7 7-10 6-9 3-6 1-102 1-8 7-57 57-7 4h-10l-8-5-4-6-1-33v-24l-95-1-13-4-11-7-7-7-8-14-3-10v-226l4-12 7-11 7-7 13-8 10-3zm-24 35-7 4-4 6-1 6v211l3 7 7 6 3 1 111 1 7 3 5 6 1 4 1 30 8-6 9-10 24-24 6-3 112-1 8-4 4-5 1-4v-216l-5-8-4-3-3-1z"/>
<path transform="translate(760,324)" d="m0 0h244v35l-1 1h-243z"/>
<path transform="translate(760,392)" d="m0 0h243l1 1v34l-1 1h-243z"/>
<path transform="translate(760,460)" d="m0 0h176v35l-1 1h-175z"/>
<path transform="translate(692,600)" d="m0 0h36v35l-1 1h-35l-1-2z"/>
<path transform="translate(1108,840)" d="m0 0h36v36h-35l-1-1z"/>
<path transform="translate(968,460)" d="m0 0h36v35l-1 1h-35z"/>
<path transform="translate(1036,840)" d="m0 0h35l1 1v34l-1 1h-35z"/>
<path transform="translate(968,840)" d="m0 0h35l1 1v34l-1 1h-35z"/>
<path transform="translate(760,600)" d="m0 0h35l1 1v34l-2 1h-34z"/>
</svg>
