<?xml version="1.0" encoding="UTF-8"?>
<svg version="1.1" viewBox="0 0 1032 908" width="1280" height="1280" xmlns="http://www.w3.org/2000/svg">
<path transform="translate(498,56)" d="m0 0h19l29 2 30 4 32 7 31 10 20 8 22 10 23 13 16 10 17 12 17 14 11 9 28 28 9 11 10 12 12 17 10 15 18 32 13 30 12 36 7 30 4 26 2 19 1 17v20l-2 28-3 25-8 37-9 29-11 27-11 23-13 23-16 23-12 16-9 10-9 11-9 9h-2l-2 4h-2l-2 4h-2v2l-11 9-15 13-17 12-15 10-17 10-25 13-24 10-33 11-26 6-30 5-34 3h-28l-35-3-24-4-27-6-36-12-26-11-16-8-20-11-12-8-16-11-10-8-17-14-13-12-15-15-9-11-12-14-13-18-13-20-13-24-7-14-13-32-9-30-6-28-3-19-3-29v-40l3-31 5-29 6-24 7-22 9-24 14-29 13-23 6-8 6-5 5-2 8-1 10 2 6 4 6 7 3 9v8l-3 8-16 29-10 21-10 27-7 25-5 25-2 12-2 26v33l4 35 6 29 7 23 7 19 8 19 12 22 11 18 8 11 10 13 11 13 9 10 14 14 11 9 16 13 12 8 19 12 22 12 29 12 28 9 22 5 25 4 21 2h38l34-4 29-6 32-10 28-12 21-11 21-13 11-8 9-7 16-13 6-6h2l2-4h2l2-4h2l2-4h2l2-4 8-8 11-14 9-12 13-20 14-26 11-25 10-31 6-26 3-18 2-20 1-18v-15l-3-35-4-23-5-22-10-30-11-26-12-22-10-16-11-16-11-13-8-10-26-26-11-9-13-10-24-16-23-13-20-9-21-8-26-8-29-6-27-3-15-1h-23l-26 2-25 4-26 6-30 10-21 9-27 14-15 9-7 2h-9l-10-4-8-9-2-5-1-10 4-11 4-5 15-10 24-13 23-11 29-11 29-8 29-6 23-3z"/>
<path transform="translate(506,158)" d="m0 0 26 1 24 3 27 6 27 9 25 11 18 10 22 15 16 13 12 11 15 15 9 11 10 13 13 20 10 18 12 28 8 26 6 29 2 18 1 15v19l-3 31-5 25-6 22-12 31-9 16-9 7-6 2h-10l-8-3-7-6-5-10-1-7 2-9 8-17 7-18 6-22 4-22 2-20v-21l-3-27-5-23-8-24-11-24-11-18-11-15-11-13-18-18-14-11-18-12-20-11-25-10-20-6-22-4-20-2h-23l-21 2-25 5-30 10-23 11-19 12-12 9-11 9-9 9h-2l-2 4h-2l-2 4-13 15-8 12-8 13-9 17-8 20-6 19-4 18-3 23v33l3 23 4 19 9 27 9 20 8 14 8 12 9 12 12 14 12 12 11 9 12 9 19 12 16 8 19 8 23 7 21 4 20 2h29l29-4 24-6 26-10 16-7h13l10 5 6 7 3 7v12l-5 10-7 6-16 8-29 11-32 8-28 4-11 1h-31l-27-3-29-6-30-10-23-10-23-13-16-11-14-11-15-13-12-12-7-8-13-16-16-24-11-20-12-29-8-26-5-25-3-27v-34l3-26 5-25 8-26 11-26 10-19 10-16 11-15 13-16 5-5 6-7 8-7 12-11 13-10 21-14 24-13 29-12 24-7 25-5 19-2z"/>
<path transform="translate(503,271)" d="m0 0h10l10 4 8 9 3 9v17l16 8 9 7 9 8 9 13 6 13 4 15v17l-5 10-8 7-9 3h-7l-10-4-6-5-5-10-3-16-5-9-6-5-11-4h-8l-10 4-8 7-4 9-1 8 2 9 5 8 7 6 8 3 18 2 15 4 16 8 10 8 8 8 9 14 6 16 2 9v22l-4 16-8 16-9 11-7 7-14 9-10 5-1 18-4 10-5 6-10 5-9 1-10-3-7-6-6-12-1-19-16-8-10-8-9-9-9-14-6-14-3-16v-8l3-10 8-9 9-4h11l10 4 7 8 3 8 3 15 5 9 9 6 6 2h11l12-6 6-7 3-7v-13l-4-9-6-7-9-4-4-1-18-2-12-3-16-8-11-8-10-11-9-15-5-15-2-12v-11l3-16 6-15 9-14 11-11 14-9 9-4h2v-19l4-10 7-7z"/>
</svg>
