<?xml version="1.0" encoding="UTF-8"?>
<svg version="1.1" viewBox="0 0 1364 1256" width="1280" height="1280" xmlns="http://www.w3.org/2000/svg">
<path transform="translate(327,111)" d="m0 0 481 1 210 1 4 3 1 3v408l24-15 38-24 48-30 19-12 24-15 7-4h7l4 4 1 5v363l-2 7-7 5-19 9-19 10-130 65-1 185-4 4-196 1-12 13-8 7-8 4-12 3h-12l-10-1-4 12-6 9-8 9-10 7-9 4-13 3-12-1-14-5-9-5-10 13-11 12-11 7-10 3h-15l-12-4-9-6-7-8-5-10-2-5-13 4h-8l-12-3-10-5-8-8-6-11-2-5v-7l-6 1h-13l-15-5-9-7-7-10-3-5h-135l-23-1-4-6v-183l-5-2-164-82-8-6v-374l4-4 9 1 23 14 38 24 21 13 38 24 21 13 14 9 1 1 1-409 3-5zm-13 17v410l18 11 22 14 24 15 19 12 21 13 19 12 24 15 19 12 4 4-1 7-7 11-2 4 11 9 11 8 21-3 122-20 57-9h31l36 6 34 6 16 5 11 7 6 5 11-9 6-5-5-9-5-8 1-6 5-4 38-24 48-30 38-24 24-15 13-8 2-2v-408l-5-1-527-1zm-170 323-1 343 4 4 160 80 4 1 18-27 25-37 13-19 21-31 17-25 25-37 7-10 10-15 15-22 2-5-15-9-17-11-19-12-21-13-38-24-24-15-21-13-17-11-26-16-22-14-24-15-57-36-18-11zm1032 0-48 30-19 12-48 30-22 14-21 13-24 15-23 15-20 12-22 14-48 30-17 11-7 4 2 5 8 11 8 12 17 25 19 28 15 22 17 25 25 37 19 28 13 19 10 15 3 1 22-11 19-10 122-61 1-1 1-12v-333zm-473 217-52 8-66 11-79 13-7 2-8 11-11 16-12 17-9 13-11 16-9 13-12 17-22 32-12 17-13 19-10 14-1 4 12 14 9 11 10 11 7 8 14 15 24 24 4-2 12-7 6-2h20l12 5 10 9 6 10 4 16h16l13 4 10 7 6 8 4 9 2 10h21l10 3 10 7 7 9 6 13 15-3 14 1 12 5 6 5h2l2 4 6 10 3 12-1 13-2 6 1 5 10 5 3 1h15l12-6 9-8 6-10 2-12-4-6-13-12-15-14-24-22-13-12-30-28-8-7-15-14-3-5 1-6 4-3 7 1 11 10 8 7 15 14 12 11 13 12 10 9 17 16 10 9 15 14 10 9 9 7 9 4h13l12-6 11-11 5-12v-11l-5-10-9-10-8-7-12-11-16-15-13-12-12-11-8-7-8-8-8-7-17-16-10-9-3-5 1-4 5-5 6 1 15 13 7 7 8 7 16 15 10 9 15 14 26 24 10 9 4 2v2l8 7 6 5 16-8 8-7 6-7 3-9v-8l-4-10-7-8-10-9-14-11-16-13-11-9-17-14-22-18-13-11-14-11-13-11-16-12-12-6-15-3h-8l-15 3-18 8-27 11-23 7-10 2-19 1-17-2-13-4-9-6-6-7-3-7v-15l5-13 8-11 10-8 21-12 45-25 47-26 24-13 10-2 32-3h10l26 7 15 2h31l21-5 12-6 4-3v-2h2l4-7v-9l-4-8-4-5-7-5-12-4-62-11-16-2zm-240 15-15 22-8 12-17 25-8 12-14 20-20 30-13 19-21 31-7 10v3l13 9 4 2 13-19 21-30 16-23 8-12 13-18 8-12 14-20 13-19 16-23 3-4-1-4-15-11zm392 0-16 12 2 5 11 16 16 23 11 16 14 20 32 46 11 16 14 20 11 16 5 5 15-11-1-4-7-11-19-28-15-22-12-18-16-23-8-12-17-25-16-24-11-16zm-20 40-9 10-8 6-10 5-21 6-10 1h-30l-20-3-24-6-30 2-12 2-26 14-18 10-85 47-11 8-7 9-3 8v10l8 7 9 3 14 2h12l20-4 23-8 30-13 14-5 18-2 18 2 20 4 25 2 23-1 20-3 22-6 20-8 17-9 5-2 5 1 4 4-1 7-8 6-23 11-20 7-25 6-15 2-29 1 1 3 8 6 11 9 10 8 11 9 13 11 10 8 33 27 16 13 14 11 8 7 8 14 2 5 4-1 15-14 8-7 23-23 7-8 11-13 13-17 9-12-1-5-11-16-12-17-13-19-14-20-11-16-14-20-13-19-12-17-13-19zm-506 157-8 13v174l1 1h111v-3l-8-6-7-10-4-11-1-12 3-12 7-12 11-13-1-4-17-16-12-13-13-14-7-8-10-11-11-14-11-13-17-13zm661 0-13 10-8 6-14 19-11 14-13 16-14 15-20 20-8 7-7 7-11 9-8 6-6 11-7 9-7 7-13 8-9 4 2 20h177v-176l-7-10zm-517 98-9 3-10 9-12 14-10 14-3 8 1 11 4 7 4 5 10 5 3 1h7l11-4 10-10 9-11 10-12 4-10v-10l-5-10-5-5-8-4-4-1zm49 41-8 4-10 13-12 14-9 11-2 4v8l4 11 4 5 6 4 6 2h11l10-4 11-12 9-11 8-10 4-11v-7l-4-10-5-6-10-5zm57 37-11 4-10 14-9 10-9 11-4 6-1 8 2 9 6 8 7 5 7 2h7l10-4 10-9 11-13 10-13 3-8v-9l-6-12-7-6-5-2zm60 30-10 3-6 5-6 11-8 10-11 13-3 6v7l3 9 7 8 9 4h13l10-5 11-12 9-11 7-9 4-11-1-10-4-8-8-7-8-3z" fill="#040404"/>
<path transform="translate(444,164)" d="m0 0h8l8 3 5 4 8 13 6 10 9-1 18-4h7l8 3 5 4 4 8 1 8-5 22-1 5 10 7 13 8 6 8 2 5v8l-4 8-9 8-13 8-4 2v7l5 21-1 9-5 8-6 5-4 1h-13l-17-4h-6l-10 17-8 9-8 4h-8l-8-3-6-5-13-22h-7l-17 4h-13l-6-3-5-5-3-6-1-10 5-20v-7l-16-9-9-7-5-10v-9l5-9 7-6 17-10 1-1-1-10-4-16v-7l4-9 5-5 8-4h9l26 6 2-5 8-13 6-8 6-4zm3 16-7 10-7 11-6 7-4 2h-15l-19-4h-5l-1 2 3 16 2 9v10l-4 7-1 3-4 2-13 8-9 6 1 4 9 6 14 9 5 6 2 5v10l-5 21v5l1 1 9-1 17-4h10l8 4 6 7 11 18 4 2 7-8 8-14 5-5 7-4h10l23 5 4-1v-8l-4-17v-11l4-8 7-6 18-11 2-4-8-6-17-11-6-9v-12l5-22-1-4-10 1-14 3-11 1-7-3-6-5-13-21-2-2z" fill="#040404"/>
<path transform="translate(415,524)" d="m0 0h471l5 5v7l-5 5h-471l-5-5-1-4 3-5z"/>
<path transform="translate(433,444)" d="m0 0h454l4 4v7l-4 5h-454l-3-4v-7z"/>
<path transform="translate(586,303)" d="m0 0h311l3 2 1 3v7l-3 4h-313l-4-7 1-4 2-4z"/>
<path transform="translate(555,595)" d="m0 0h251l4 4 1 6-4 6h-252l-4-6 1-7z"/>
<path transform="translate(620,232)" d="m0 0h225l5 4 1 5-3 7-3 1h-228l-5-5v-6l4-5z" fill="#010101"/>
</svg>
