<?xml version="1.0" encoding="UTF-8"?>
<svg version="1.1" viewBox="0 0 1408 1216" width="1280" height="1280" xmlns="http://www.w3.org/2000/svg">
<path transform="translate(637,118)" d="m0 0 13 1 15 4 11 4h13l20-7 10-2h10l15 4 11 6 12 9 9 4 4 1h12l12-1 15 3 10 4 9 7 7 6 12 16 9 6 12 3 9 2 16 8 10 9 9 15 6 15 5 8 7 6 14 8 11 9 7 9 5 11 2 9 1 17 4 12 6 8 9 9 9 14 4 10 1 5v20l-3 13v8l2 9 10 21 3 12v15l-3 11-4 9-6 12-2 9 1 12 2 9v24l-4 11-7 11-9 10h-2v2h-2l-7 14-1 4-1 17-3 13-6 12-10 11-11 7-11 6-6 5-5 8-7 18-4 8 1 5 13 32 17 43 19 49 14 36 44 110 13 33 11 29v8l-4 5-2 1-11-1-27-5-57-11-54-10-10 13-12 16-11 14-9 12-10 13-16 21-13 17-8 10-7 4-6-4-4-6-22-56-20-50-15-38-19-48-11-28-16-41-4-10-3 4-9 25-9 24-9 26-13 35-19 53-28 76-9 24-5 6-7 1-8-7-13-15-8-10-11-13-8-10-12-14-18-22-14-17-8-10h-7l-55 11-51 11-36 7h-6l-5-5-2-5 7-20 36-98 11-30 13-36 18-50 14-39 22-59 9-25-1-7-6-8-7-6-14-8-12-10-7-10-4-11-2-8-1-16-3-10-6-9-11-11-7-11-5-12-1-6v-12l3-16 1-11-2-9-8-16-4-10-1-4v-20l4-13 8-16 3-10v-9l-4-17v-15l3-12 6-11 11-12 8-9 4-10 1-5 1-17 5-15 7-11 7-7 14-9 10-6 8-9 8-20 7-12 8-8 10-6 13-5 17-4 10-7 9-12 8-9 8-6 11-5 10-2h31l10-4 17-12 10-5zm-1 20-9 3-11 7-14 9-13 4-6 1h-27l-10 3-7 5v2l-4 2-8 11-9 9-12 7-23 6-11 6-5 4-8 14-5 13-6 9-6 7-9 6-13 7-10 10-4 10-2 8-2 21-5 13-11 13-9 9-6 12-1 11 2 11 2 10v17l-6 16-6 11-3 8v14l4 10 9 19 2 8v17l-3 12v17l4 9 4 6 10 10 7 10 4 8 3 12 2 18 4 12 9 10 16 9 11 8 7 10 6 13 5 12 6 8 9 6 8 3 17 4 12 6 10 9 8 10 7 8 8 5 12 3 22-1 12 2 12 5 11 8 9 6 5 2 6 1h8l12-3 14-5 7-1 16 1 19 7 6 1h10l10-3 18-13 11-5 7-2 8-1h9l12 1 10-2 8-4 8-7 8-12 9-9 14-7 21-5 10-5 8-8 5-10 5-13 6-10 6-7 10-7 13-7 7-6 5-9 3-8 1-16 4-16 6-10 11-12 7-8 4-9 1-4v-12l-3-15v-17l5-16 8-15 2-8v-10l-4-12-8-16-3-10v-20l3-12v-13l-3-10-7-9-10-10-9-14-3-9-1-16-2-11-4-9-6-7-10-6-13-8-9-8-8-13-6-17-6-8-7-6-13-5-10-2-13-5-9-6-8-8-8-11-7-7-8-4-5-1h-31l-12-3-11-6-14-10-9-4-9-1-12 2-17 6-6 1h-12l-13-3-13-5zm-186 578-17 48-10 27-7 20-11 29-18 49-17 47-20 55-15 42v3l10-2 122-24h10l5 5 9 10 9 11 11 13 18 22 11 13 9 11 11 13 7 9h3l13-36 19-52 15-40 12-34 21-57 17-47 18-49 2-7v-4l-10 1-18 6-11 2h-17l-13-4-13-8-8-6-9-4-4-1h-11l-12 1-13-2-11-4-12-9-7-8-7-9-7-7-11-5-14-3-12-5-8-5-7-5zm446 11-10 4-17 4-11 6-8 9-8 11-11 9-8 4-13 3h-30l-10 3-11 7-8 6-11 5-11 2h-14l-9-1-15 41 1 9 15 37 22 56 12 30 20 51 14 35 13 33 11 28 2 3 4-2 48-63 14-19 14-18 5-5h8l118 22 10 1-1-6-19-49-17-43-19-49-12-30-23-58-11-28-12-31-6-16-1-1z" fill="#110E0E"/>
<path transform="translate(661,193)" d="m0 0h41l24 3 28 6 24 8 23 10 25 14 11 8 13 10 14 12 19 19 11 14 13 18 12 21 10 21 10 30 5 21 3 18 2 29v13l-2 25-4 24-6 22-8 24-8 17-11 20-8 12-12 16-13 15-17 17-11 9-10 8-12 8-17 10-25 12-17 6-16 5-24 5-33 4h-30l-21-2-29-6-26-8-22-9-22-12-21-14-16-13-12-11-11-11-9-11-11-14-14-22-11-21-9-23-7-23-6-31-2-21v-31l2-21 5-26 6-21 9-24 10-20 12-20 13-18 13-15 11-12 8-7 13-11 20-14 21-12 16-8 17-7 19-6 27-6zm14 19-24 2-22 4-20 5-25 9-16 8-16 9-17 12-14 11-13 12-7 7-9 11-10 13-10 15-9 16-8 16-8 22-6 22-3 17-3 30v13l2 23 4 24 6 23 8 22 8 17 13 22 10 14 11 13 9 10 9 9 11 9 10 8 21 14 16 9 23 10 19 6 22 5 22 3 14 1h21l29-3 26-6 27-9 21-10 17-10 17-12 13-11 10-9 11-11 7-8 10-13 12-18 10-18 8-18 8-24 6-28 3-26v-29l-3-27-6-26-9-26-12-25-11-18-10-14-11-13-11-12-14-13-17-13-15-10-22-12-21-9-26-8-25-5-23-2z" fill="#110E0E"/>
<path transform="translate(390,613)" d="m0 0 4 5v6l4 1 7 11 2 5 8 9 1 2 6 2v4h3l3 2v2l5 1v2l4 2 7 3v3h2v2l4 2 3 8 2 6 3 8 2 6 5 2v2l-4-1-4-3-7-2-3 7-2 2-3 10-2 7-14 42-5 16-4 10-12 34-5 12-7 19-12 32-9 25-3 8h-2l-1 9-3 7-4 11-5 14-3 9-4 9-2 6-5 13-11 33-2 5 11-3 25-5 2 1v-2l15-3 37-7 14-3 17-4 10-2 1 2 3 1v-2l2 1 1-2h5l4 4 5 1 3 3 4 2 9 11 6 8v3h2l2 3v3h2l7 8v2l3 1 4 4v3l4 1 5 6v2h2l1 4h2l2 4 7 6 4 6 2 5 3 3v2l6 2 2 4 4 2 5 5h3l2-2 3-13 2-2 1-4 3-3 2-5v-5l2-2 1-4 2-5 1-7h2l-1-3 3-10 8-23 7-18 10-30 2-4 1-6 5-11 3-8 3-11 6-15 4-13 7-16 6-17 3-7 10-25 2-1 2 1v-7h2l-1-6 1-3h2v-5l2-4 4-11v-2l2-2 2-6 4-6h-2l1-5 2-3v-4l-5-3 1-5 5-3 7 1 4 3h31l6-3 5-1 3-3 6-2 1-3h4l1-2 6-2 1 2h2l1-2 7-2h11l3 2 11-1 7-4 8-2 9-4h2v-3l6-4 1-2h3l2-6 4-4h2l2-4 7-2 4-4 9-3 1-2h2l2-2 10-1h6l1 4-3 1h-8l-3 2-1 1-4 1h-2l-8 4-8 7h-2v2h-2v2l-4 1-1 4-9 10-7 7-16 8-16 1-5-1v-2l-15 1-8 3-7 1v2l-5 2-10 7-8 5-9 2h-21l-6-1-5 2-1 7-3 3v7l-1 3-3 1 1 5-2 1-1 3h-2l2 7-3 10v6l6 15 6 13 7 17 14 36 28 70 3 10 2 5 3 8 5 13 5 12 8 20 4 8 2 9h2l2 8 4 9v3h2l3 10 2 5 8 8 11-13 9-12 12-15 24-32 13-18 10-14h2l-2 6h-2l-2 5-5 7-4 7-2 2 2 2 5-6 1-2h2l2-5 1-2h2v-2l4-4 3-5 1-5 4-1 9 1 6 2 10 3 9-1 7 3h8l1 2h5l4 2 10 1 9 2 7 2 4-1 12 2 3 2 2-1v2h15l6 2 6 1-2-9-8-20-16-42-14-34-11-30-11-27-6-14-6-16-21-54-8-21-6-16-7-21-3-15-3-1-4-4-7 2v-2l4-2 1-4h2l2-5 3-5 4-1v3l-1 5-1 3h2l1 3 10 20 4 11 8 20 13 30 7 20 3 8v2h2l3 10 9 25 2 5v3h2l2 8 2 1 2 9 3 4 1 5 3 5 3 8 2 8 3 4 1 7h2l10 24 3 8 1 6 3 3 12 29 9 24 8 26v6l-5 1-31-5-34-6-74-14-8-1-10 13-13 17-5 6-2-2v-2l-3 5-3 6 3-2-2 4-13 18-21 27-6 7v-3l2-5h3l2-6h2l2-4 6-7v-7h2v-2h-2l-1 2h-2v2h-2l-2 4-9 12-5 6-5 5-4 6-4 2-2 3h-2l1 4 4-1 1 3 4-1-6 8-1 2h-2l-3-5-5-10-6-15-5-12-7-17-6-16-8-19-13-33-2-5v-6l-4-6-2-4-3-9-6-13-7-20-5-11-5-14-5-12-8-20-9-23-3-9-2-7-2-2-3 3h-2l-1 7-11 30-6 16-7 20-6 16-3 9h-2l-2 11-3 8-8 24-4 10-12 33-8 20-3 9-5 16-11 28-6 13-5 8h-2v-2l-4-2-14-16-2-4h-2l-9-12-1-3h-2l-11-14-13-16-5-6v-2l-5-5-10-11-6-8v-2l-4-2 1-4h-4l-2-5-5-2-1-3v-2l-2 1-10 1-72 15-46 9-21 4h-6l-1-6 13-38 4-11 5-13 3-6 6-16 7-21 7-20 8-21 9-24 2-7 7-18 3-8 2-8h2l-1-3 4-9 10-30 3-7 4-12 5-12 4-10 4-9 5-14 2-7h2l2-10 6-18 2-1 2 1-4-4v-2l2-1-2-2v-5l-2-1 1-3-3-1-5-6-9-5-4-2 1-1-7-2-2-2-1-2-4-1v-2l-4-1-7-10-4-9-3-13v-6z" fill="#242021"/>
<path transform="translate(843,261)" d="m0 0 6 1 2 1v2h2l5 5 5 3 2 2 4 2 6 5v2l4 2 7 7 8 11 2 4 3 3 1 3 3 3v3h2l12 22 6 13 2 5 5 12 4 14 3 13 1 1 2 18 2 7 1 21v36l-3 26-3 13-2 6-3 11-6 18-4 11-8 16-6 11-2 3h-2l-2 6-6 8-7 10-10 11-2 3h-2l-2 4-15 15-16 14-13 9-11 6-5-1v2l-2 2-4 2-2-1v2l-5 4-2 1-4 3-18 8-18 6-25 6-21 4-13 1h-36l-12-1-5-2h-11l-23-5-17-5-20-8-16-8-14-8-19-12-14-12-3-2v-2l-3-1v-2h-2l-13-13-8-10-3-3v-2l-3-1-2-5h-2l-5-9-3-3v-3h-2l-3-6v-2h-2l-9-18-1-3h-2l-3-7-5-13-4-11-1-5-2-4-1-9-2-6-2-7-2-16v-3-11l-2-2-1-15v-25l1-5 2-1-2-6 3-6v-10l4-13v-9h2v-2h2v-6l3-7 1-2h2l2-7 4-9 5-14 8-15 6-11 6-8h2l2-4 6-8 3-1v-2l8-7 5-3v-4l3-1 2-4 4-6h2v-2l5-5 6-2-2 7-4 5-7 6-6 7-6 5-4 8-6 7-1 2h-2l-2 5-12 18-6 10-11 23-3 10-3 7-2 10-3 9v6l-3 6-1 17-2 7-1 24v24l4 23 2 8v2l2 9 4 10 3 10 1 5 2 5 2 3 1 5 8 17 3 3 1 5h2l4 7 4 5 2 7 4 2 7 11 17 17v2h2l6 8 11 9 4 2 18 12 14 8 5 3 13 7v2h5l4 4 9 4 3 2 5-2 1 3h6l2 3 1-2 6 1 4 1 5 1 3-1v2h9l11 1v2h12l7 2h12l23-1 10-2 10-1 4-2 11-2 18-5 10-3 10-4 18-8 10-5 6-2 7-1 1-4 11-8 4-1v-2l7-5h2l2-4 8-7 6-4h2v-2l6-4 5-6 6-8 3-3 6-11 1-2h2l2-4 2-6h2l2-5 1-3h2l1-7 4-6 2-5 4-9 6-17 3-9 4-16 3-15 3-19 1-30v-10l-3-23-2-12-3-13-4-11-4-13-1-6 1-2-3-1-3-8-3-7-3-6v-2h-2l-3-6-7-11-4-6-1-4-3-1-8-11-9-11-2-2-3-7-5-5 1-4-4 1-5-5-4-2-1-5z" fill="#252021"/>
<path transform="translate(390,613)" d="m0 0 4 5v6l4 1 7 11 2 5 8 9 1 2 6 2v4h3l3 2v2l5 1v2l4 2 7 3v3h2v2l4 2 3 8 2 6 3 8 2 6 5 2v2l-4-1-4-3-7-2-3 7-2 2-3 10-2 7-14 42-5 16-4 10-12 34-5 12-7 19-12 32-9 25-3 8h-2l-1 9-3 7-4 11-5 14-3 9-4 9-2 6-5 13-11 33-2 5 11-3 25-5 2 1v-2l15-3 37-7 14-3 17-4 10-2 1 2 3 1v-2l2 1 1-2h5l4 4 5 1 3 3 4 2 9 11 6 8v3h2l2 3v3h2l7 8v2l3 1 4 4v3l4 1 5 6v2h2l1 4h2l2 4 7 6 4 6 2 5 3 3v2l6 2 2 4 4 2 5 5h3l2-2 3-13 2-2 1-4 3-3 2-5v-5l2-2 1-4 2-5 1-7h2l-1-3 3-10 8-23 7-18 10-30 2-4 1-6 5-11 3-8 3-11 6-15 4-13 7-16 4-12 5 3 2 2 1 7-6 16-7 20-6 16-3 9h-2l-2 11-3 8-8 24-4 10-12 33-8 20-3 9-5 16-11 28-6 13-5 8h-2v-2l-4-2-14-16-2-4h-2l-9-12-1-3h-2l-11-14-13-16-5-6v-2l-5-5-10-11-6-8v-2l-4-2 1-4h-4l-2-5-5-2-1-3v-2l-2 1-10 1-72 15-46 9-21 4h-6l-1-6 13-38 4-11 5-13 3-6 6-16 7-21 7-20 8-21 9-24 2-7 7-18 3-8 2-8h2l-1-3 4-9 10-30 3-7 4-12 5-12 4-10 4-9 5-14 2-7h2l2-10 6-18 2-1 2 1-4-4v-2l2-1-2-2v-5l-2-1 1-3-3-1-5-6-9-5-4-2 1-1-7-2-2-2-1-2-4-1v-2l-4-1-7-10-4-9-3-13v-6z" fill="#252021"/>
<path transform="translate(809,364)" d="m0 0 6 2 5 5 1 5-4 7-26 26h-2v2l-8 7-18 18-8 7-29 29-8 7-32 32-8 7-17 17-8 7-24 24-8 7-7 7-4 2-4-1-8-7-12-14-9-11-11-13-8-10-11-13-9-11-8-10-5-9 3-6 5-4h6l8 7 9 11 11 13 8 10 9 11 12 14 11 14 3 3 21-21h2l1-3 8-7 53-53 8-7 29-29 8-7 34-34 8-7 21-21z" fill="#110E0E"/>
<path transform="translate(390,613)" d="m0 0 4 5v6l4 1 7 11 2 5 8 9 1 2 6 2v4h3l3 2v2l5 1v2l4 2 7 3v3h2v2l4 2 3 8 2 6 3 8 2 6 5 2v2l-4-1-4-3-7-2-3 7-2 2-3 10-2 7-14 42-5 16-4 10-12 34-5 12-7 19-12 32-9 25-3 8h-2l-1 9-3 7-4 11-5 14-3 9-4 9-2 6-5 13-3 9-2 7-3 3-2 3h-2l1-5h2l-1-4 3-10 3-12h-2l1-8 4-9 6-16 7-21 7-20 8-21 9-24 2-7 7-18 3-8 2-8h2l-1-3 4-9 10-30 3-7 4-12 5-12 4-10 4-9 5-14 2-7h2l2-10 6-18 2-1 2 1-4-4v-2l2-1-2-2v-5l-2-1 1-3-3-1-5-6-9-5-4-2 1-1-7-2-2-2-1-2-4-1v-2l-4-1-7-10-4-9-3-13v-6z" fill="#2A2020"/>
<path transform="translate(964,282)" d="m0 0 4 2 2 5 1 15 1 5 3 11 2 5 3 5v2h2l9 9v2h2l12 17 2 8v21l-1 13-1 5 3 16 7 14v5h2l3 10v18l-9 21-4 9v36l2 1-1 12-5 16-5 7h-2l-2 4h-2v2h-2v2h-2l-1 2-3-2 4-8 3-3 1-2h2l-1-3h2v-7l2-7 1-7-1-7v-10l-2-17 2-7 1-4 4-9 5-13 3-12-2-13-1-7h-2l-5-12-2-5-3-11v-12l2-22v-17l-2-5-10-11-5-7-4-5-6-9-1-7v-3h-2v-14l-1-2h2v-2h-2l-1-7-1-1-1-8z" fill="#242021"/>
<path transform="translate(457,711)" d="m0 0h7l6 3h3l8 4 13 2 1 3 8 3 10 6 2 4h3v2l5 2 3 3 7 8 2 1v2l14 7v2h9l7 2h6l2-1 10 1 8-1 3 1v2l7 1 3 1v2l4 1 11 7 5 4 8 2h17l3-1 2 1v-2l9-3 21 2-1 4-6 1-9 3-8 3-15 3h-11l-12-3-10-5-15-10-5-3-22-2-3 1h-11l-8-3-9-2-11-9-14-16v-3l-4-2v-2l-4-1-2-2h-2l-1-2-12-4v-2l-4 1-7-2-11-5v-2l-4-2-6-4z" fill="#242021"/>
<path transform="translate(656,891)" d="m0 0 5 3 2 2 1 7-6 16-7 20-6 16-3 9h-2l-2 11-3 8-8 24-4 10-16 44-3 1-1 4-4 4-2-4v-2l-2-1 2-7 8-24 6-15 10-30 2-4 1-6 5-11 3-8 3-11 6-15 4-13 7-16z" fill="#2A2020"/>
<path transform="translate(934,428)" d="m0 0h2l4 23h1l-1-14 3 2v43l-3 26-3 13-2 6-3 11-6 18-4 11-8 16-6 11-2 3h-2l-1 4-5 1-1 4h-2l-1 4-5 2-3 1 2-5 1-2h2l2-4 2-6h2l2-5 1-3h2l1-7 4-6 2-5 4-9 6-17 3-9 4-16 3-15 3-19 1-30v-10l-1-12z" fill="#2A2020"/>
<path transform="translate(390,613)" d="m0 0 4 5v6l4 1 7 11 2 5 8 9 1 2 6 2v4h3l3 2v2l5 1v2l4 2 7 3v3h2v2l4 2 3 8 2 6 3 8 2 6 5 2v2l-4-1-4-3-7-2-3 7-2 2-3 10-2 7-2 4v-3h-2l-1 10-3 4v4h-2l-1-3-3 1 1-9 4-9 1-5h2l2-10 6-18 2-1 2 1-4-4v-2l2-1-2-2v-5l-2-1 1-3-3-1-5-6-9-5-4-2 1-1-7-2-2-2-1-2-4-1v-2l-4-1-7-10-4-9-3-13v-6z" fill="#252021"/>
<path transform="translate(534,478)" d="m0 0 4 1v2h2l5 7 5 5 2 4h2l4 7 6 7v2h2l4 5v2l4 2 5 6 7 8 12 14 2 4 8 7 3 1v-2h3l1-2v2l5-1-2 5-2 6-9 4h-3v-3l-4-1v-2h-2l-8-11-12-14-4-6-9-11-5-5-2-4-3-3v-2h-2v-2h-2v-2l-2-1-3-3v-2l-3-1-1-4-4-2-5-7-2-1-1-4h2z" fill="#242021"/>
<path transform="translate(516,262)" d="m0 0 2 1-3 7-5 5-6 7-8 7-3 3-4 8-6 7-1 2h-2l-2 5-12 18-6 10-7 15-5 3-2-5 5-11 8-17 3-4 3-5 5-7h2l2-4 6-8 3-1v-2l8-7 5-3v-4l3-1 2-4 4-6h2v-2l5-5z" fill="#2A2020"/>
<path transform="translate(707,475)" d="m0 0 1 4-4 1-4 8h-2v2l-6 4-3 5-12 12-5 2v3l-6 5-6 4-4 4h-2l-2 6h-3l-6 9-6 1-5 3-1 2h-5l2-5 7-8 11-9 4-1v-3l4-2 3-6 5-1v-2l8-5 4-6 4-2 1-5 5-2 6-4 5-5 5-4 5-3h2z" fill="#242021"/>
<path transform="translate(641,125)" d="m0 0 14 4 6 1 5 3 1-2 2 3 11-1 10 1 1-4h5l1 2 2-2 4-2 6 1-1 3 3 1-1 1 2 2-12 5-8 2h-16l-10-2v-2h-7l-5-2v-2l-5 1-8-2h-8l-2-4h2v-2h2v-2z" fill="#242021"/>
<path transform="translate(687,198)" d="m0 0 16 1 5 1 1 4-1 1h4 7l-1 4 2-1v-2h7l5 2 18 4 7 6-4 1-15-4-5-1-19-4-13-2-31-2-1-5-3-1z" fill="#252122"/>
<path transform="translate(431,253)" d="m0 0h4l-1 4-7 5h-3v2l-9 6-7 8-3 3-5 11-2 9-2 6v6l1 1v7l-1 2h-2l-2 9-4 5-3 1-1-5 2-1 1-7 4-4 1-10-1-13 3-9 3-8 7-10 3-1v-2l5-1v-2l6-2 5-4 3-3 5-1z" fill="#2A2020"/>
<path transform="translate(973,593)" d="m0 0 4 1-3 22-1 3 1 3-5 16-2 4h-2l-2 4-5 4-6 7-11 6-9 3 1-4h2v-2l4-1 1-2 1 1 1-2 3-1 2-4 4-1 6-5h2l2-4 1-5 3-8v-5h2l-1-7v-10l5-12z" fill="#252021"/>
<path transform="translate(809,370)" d="m0 0h2l3 3v6l-4 1-2 5-10 8-5 6h-2l-2 4-7 6h-2l-1 3-4 1-1 2-5 1 2-5 9-10 7-8 12-11 3-3h2v-6l1-2 4 1z" fill="#242021"/>
<path transform="translate(619,133)" d="m0 0h5l-5 8-10 6-8 3-9 4-11 3-5-1 2-5 9-3 9-4 6-3 9-4 4-1 1-2z" fill="#252122"/>
<path transform="translate(861,1055)" d="m0 0 3 1-4 2 1 2h-2v2h-2l1 3-3 1 1 4-9 15-2 1-2 4-6 4h-3l-1 2-3-1 2-4 21-28 5-7z" fill="#2A2020"/>
<path transform="translate(747,130)" d="m0 0 5 2 1 2 3 2 1 3 7 2-1 4 4 2v4l-2 2-23-12-5-4h5l-2-3z" fill="#242021"/>
<path transform="translate(361,365)" d="m0 0h2l2 6-1 4v8h2l1 12-1 5 1 8-1 2h-2l-2-3-3-16v-6l-2-3v-11z" fill="#252021"/>
<path transform="translate(516,262)" d="m0 0 2 1-3 7-5 5-6 7-8 7-3 3-4 8-3 3h-4l-1-5h2v-2l8-7 5-3v-4l3-1 2-4 4-6h2v-2l5-5z" fill="#252021"/>
<path transform="translate(827,166)" d="m0 0 8 2 8 8 11 8 4 1v2l5 1 5 5h3v2l-4 2-5-2-4-2v-2h-3v-2l-8-4h-3v-2h-2v-2l-4-2v-2l-4-2-7-8z" fill="#252122"/>
<path transform="translate(434,389)" d="m0 0 1 3v3l-1 3 4 5-1 5-2 5v5l-5 3-4-1-1-6 4-13v-9h2v-2z" fill="#252021"/>
<path transform="translate(622,208)" d="m0 0 7 1v2l2 1-18 4-6 1-6 3h-3-5l-1 2-10 2 1-4 10-3 10-4z" fill="#242021"/>
<path transform="translate(359,544)" d="m0 0 2 2 1 5 4 2 2 4v4h2l1 6h2l3 8h-2l-1 2-4-2-2-4-2-2 2-2-1-3-5-2-2-4-1-10v-3z" fill="#242021"/>
<path transform="translate(720,206)" d="m0 0h7l5 2 18 4 7 6-4 1-15-4-5-1-14-3z" fill="#221E1F"/>
<path transform="translate(791,222)" d="m0 0 6 1 7 5 2 1-1 2 3-1 4 2v3l5 1 2 2 5 2v3l4 1 5 5 5 1v3l2 1-1 2h-2v-2l-12-6v-2h-2l-2-4-4-1-2-2-2 1-2-4-3-1v-2l-6-2-13-7z" fill="#252122"/>
<path transform="translate(427,423)" d="m0 0 2 1 1 5-3 9 1 2-2 6-1 4 1 3-1 7-2 1-1 5h-1v-24l1-5 2-1-2-6 3-4h2z" fill="#2B2020"/>
<path transform="translate(642,531)" d="m0 0 3 1 1 4-1 5-2 3-6 1-5 3-1 2h-5l2-5 7-8z" fill="#252021"/>
<path transform="translate(347,456)" d="m0 0 4 2 1 5v3 7h2v4h3l1 10h-4l-2-4 1-4-3-2-1-3-2-1-1-9-1-5z" fill="#252021"/>
<path transform="translate(667,715)" d="m0 0 18 2-1 4-4 1h-17l-4-2 4-4z" fill="#2A2020"/>
<path transform="translate(476,200)" d="m0 0 2 1-1 2-10 9-5 2v2h-2v2l-3-1 1-6 6-7 7-2z" fill="#2B2020"/>
<path transform="translate(395,313)" d="m0 0 2 1v7l-1 2h-2l-2 9-4 5-3 1-1-5 2-1 1-7 4-4 2-6h2z" fill="#252122"/>
<path transform="translate(947,651)" d="m0 0h8l-1 4-8 5-6 4-8 2 1-4h2v-2l4-1 1-2 1 1 1-2 3-1z" fill="#231F20"/>
<path transform="translate(540,156)" d="m0 0h3l-3 6-3 4h-2l-2 4-3 1-1 2-3 3h-2l-2 4h-2v2l-2-1 2-6 5-4 6-5 4-5 4-1z" fill="#262021"/>
<path transform="translate(856,645)" d="m0 0v3l-5 7-3-1v2l-3 3 1 4-6 2h-3v2l-4-2 2-1v-2l7-5h2l2-4 8-7z" fill="#2A2020"/>
<path transform="translate(920,679)" d="m0 0h2l-2 9-3 6-1 3-4-1 1-7 3-4 3-5z" fill="#252021"/>
<path transform="translate(913,236)" d="m0 0h2l1 2 4 1 1 4h2v2h2v7l-3-3-4-2v-2l-3-1z" fill="#252122"/>
<path transform="translate(563,229)" d="m0 0 2 3h-2l-1 3-9 3v2l-7 2-1-2 4-2 2-3 7-4 3-1 2 1z" fill="#252122"/>
<path transform="translate(359,929)" d="m0 0 2 1v2l2 1-2 1-1 4-2 5-5 3 1-9h2l2-7z" fill="#252021"/>
<path transform="translate(434,389)" d="m0 0 1 3v3l-1 3 2 5-1 2h-4l-1-4-1-9h2v-2z" fill="#2A2020"/>
<path transform="translate(361,365)" d="m0 0h2l2 6-3 6-5 2v-8z" fill="#2B2020"/>
<path transform="translate(642,531)" d="m0 0 3 1v4l-5 5-4-1-1-3z" fill="#2A2020"/>
<path transform="translate(433,409)" d="m0 0h1l1 9-5 3-4-1-1-6 4-1 2 1z" fill="#2A2020"/>
<path transform="translate(721,129)" d="m0 0h7l3 1v4l-16 1 2-2h3z" fill="#242021"/>
<path transform="translate(740,442)" d="m0 0 2 1-3 5-4 4h-2l-1 2-2-2 3-4h2l2-4z" fill="#2B2020"/>
<path transform="translate(384,1033)" d="m0 0 5 1 2 1v-2h3l-2 4h-10l-1-3z" fill="#2A2020"/>
<path transform="translate(863,1061)" d="m0 0 1 2-2 5-6 7v-3l4-8z" fill="#0F0C0C"/>
<path transform="translate(913,576)" d="m0 0 4 1-4 8-3-3v-2h2l-1-3z" fill="#262021"/>
<path transform="translate(365,522)" d="m0 0h1v8l-2 2-2-3 1-5z" fill="#252122"/>
<path transform="translate(405,270)" d="m0 0 3 1-3 3 3 1-4 2h-3l2-5z" fill="#262021"/>
<path transform="translate(746,214)" d="m0 0 7 1 4 4-7-1-5-1z" fill="#252122"/>
<path transform="translate(555,150)" d="m0 0 3 2-1 4h-6l-1-2 3-1z" fill="#242021"/>
</svg>
